M48
; DRILL file {KiCad (5.99.0-9544-g366189b864)} date 03/13/21 12:07:34
; FORMAT={-:-/ absolute / inch / decimal}
; #@! TF.CreationDate,2021-03-13T12:07:34+00:00
; #@! TF.GenerationSoftware,Kicad,Pcbnew,(5.99.0-9544-g366189b864)
; #@! TF.FileFunction,Plated,1,2,PTH
FMAT,2
INCH
T1C0.0157
T2C0.0300
T3C0.0315
T4C0.0354
T5C0.0394
T6C0.0400
T7C0.0433
T8C0.0551
T9C0.0630
T10C0.1181
T11C0.1260
%
G90
G05
T1
X1.2799Y-3.972
X1.2913Y-3.5209
X1.3075Y-3.924
X1.378Y-4.0165
X1.5626Y-6.9638
X1.5843Y-2.9957
X1.613Y-6.8118
X1.6256Y-3.7185
X1.6354Y-6.9346
X1.6571Y-3.7878
X1.8Y-4.0461
X1.8307Y-3.5571
X1.8339Y-4.5937
X1.9224Y-3.8728
X1.9354Y-3.8252
X1.9622Y-4.6815
X1.9909Y-3.8098
X2.037Y-6.6665
X2.0606Y-3.4598
X2.0874Y-3.5157
X2.1669Y-5.9965
X2.1854Y-2.8606
X2.2138Y-2.965
X2.2173Y-3.5083
X2.261Y-6.5902
X2.2646Y-6.3331
X2.3232Y-6.7472
X2.3702Y-4.2593
X2.4077Y-6.9151
X2.4232Y-6.4173
X2.4504Y-2.9606
X2.4551Y-6.6382
X2.4622Y-6.5902
X2.4693Y-6.335
X2.4764Y-6.8256
X2.4862Y-6.2189
X2.5374Y-6.3031
X2.548Y-5.9776
X2.6224Y-4.5425
X2.626Y-4.5795
X2.6366Y-2.7051
X2.6429Y-2.6262
X2.6453Y-4.7094
X2.6503Y-6.2251
X2.6811Y-2.6996
X2.7396Y-2.6807
X2.7563Y-6.2205
X2.7882Y-2.9551
X2.7941Y-2.8345
X2.824Y-5.9236
X2.8419Y-2.8069
X2.889Y-1.8618
X2.889Y-2.9551
X2.891Y-2.8345
X2.8921Y-1.9445
X2.8925Y-1.8984
X2.8933Y-1.9882
X2.9028Y-4.1039
X2.9047Y-5.8906
X2.9335Y-2.1283
X2.9484Y-4.1035
X2.9705Y-4.3799
X2.9756Y-6.3516
X2.9898Y-2.9551
X2.9899Y-2.8345
X2.998Y-3.8256
X3.0039Y-3.728
X3.022Y-6.7283
X3.0232Y-6.8602
X3.0496Y-2.8315
X3.089Y-4.4028
X3.1258Y-4.0415
X3.1476Y-3.7476
X3.1487Y-2.7833
X3.1563Y-3.8469
X3.1574Y-2.6675
X3.1634Y-4.0035
X3.1846Y-2.2583
X3.2232Y-4.0909
X3.2398Y-1.7941
X3.3094Y-1.7232
X3.3094Y-3.8571
X3.3193Y-2.1492
X3.3201Y-2.0496
X3.3394Y-4.3657
X3.3559Y-3.8335
X3.4055Y-2.1681
X3.4244Y-6.3937
X3.4749Y-5.3575
X3.4874Y-3.726
X3.4925Y-5.2354
X3.5185Y-4.7984
X3.5201Y-4.7516
X3.5244Y-3.7189
X3.561Y-5.8134
X3.5693Y-4.3657
X3.6339Y-3.9362
X3.6366Y-4.0075
X3.6386Y-3.778
X3.666Y-5.6537
X3.6902Y-3.9803
X3.6914Y-5.5868
X3.7047Y-2.6665
X3.7236Y-2.7083
X3.7303Y-4.2472
X3.7551Y-2.7224
X3.8094Y-3.7453
X3.8108Y-1.7772
X3.8177Y-3.8528
X3.8398Y-1.7614
X3.8681Y-1.4488
X3.8685Y-1.737
X3.9402Y-5.7638
T2
X1.0441Y-1.3937
X1.0441Y-1.4937
X1.0441Y-1.5937
X1.0441Y-1.6937
X2.0394Y-3.7378
X2.2394Y-3.7378
X2.4488Y-3.735
X2.4929Y-6.4402
X2.4955Y-5.3907
X2.4955Y-5.9616
X2.5929Y-6.4402
X2.5939Y-5.3907
X2.6488Y-3.735
X2.6923Y-5.3907
X2.6923Y-5.9616
X2.6929Y-6.4402
X3.4933Y-4.4283
X3.4933Y-4.6283
X3.9252Y-0.8937
X3.9252Y-0.9937
X3.9252Y-1.0937
X3.9252Y-1.1937
X3.9252Y-1.2937
X3.9252Y-1.3937
X3.9252Y-1.4937
X3.9252Y-1.5937
X3.9252Y-1.6937
X3.9252Y-1.7937
X3.9252Y-1.8937
X3.9252Y-1.9937
X3.9252Y-2.0937
X3.9252Y-2.1937
T3
X2.451Y-1.3083
X2.5297Y-1.3083
X2.8228Y-1.3083
X2.9016Y-1.3083
X3.274Y-4.4785
X3.274Y-4.5573
T4
X2.1886Y-6.0685
X2.1886Y-6.1685
X2.1886Y-6.6591
X2.1886Y-6.7591
X3.937Y-6.0713
X3.937Y-6.1713
X3.937Y-6.6618
X3.937Y-6.7618
T5
X1.111Y-3.4252
X1.1451Y-2.8069
X1.1451Y-2.9069
X1.1451Y-3.0069
X1.1451Y-3.1069
X1.1516Y-5.5118
X1.211Y-3.4252
X1.2451Y-2.8069
X1.2451Y-2.9069
X1.2451Y-3.0069
X1.2451Y-3.1069
X1.2516Y-5.5118
X1.311Y-3.4252
X1.3516Y-5.5118
X1.411Y-3.4252
X1.4516Y-5.5118
X1.511Y-3.4252
X1.5443Y-2.4506
X1.5443Y-2.5506
X1.5516Y-5.5118
X1.611Y-3.4252
X1.6443Y-2.4506
X1.6443Y-2.5506
X1.6516Y-5.5118
X1.711Y-3.4252
X1.7443Y-2.4506
X1.7443Y-2.5506
X1.7516Y-5.5118
X1.811Y-3.4252
X1.8443Y-2.4506
X1.8443Y-2.5506
X1.8516Y-5.5118
X1.9443Y-2.4506
X1.9443Y-2.5506
X1.9882Y-3.9992
X1.9882Y-4.0992
X1.9882Y-4.1992
X1.9882Y-4.2992
X1.9882Y-4.3992
X1.9882Y-4.4992
X2.0443Y-2.4506
X2.0443Y-2.5506
X2.1443Y-2.4506
X2.1443Y-2.5506
X2.2443Y-2.4506
X2.2443Y-2.5506
X2.3443Y-2.4506
X2.3443Y-2.5506
X2.3539Y-6.0892
X2.3539Y-6.1892
X2.3539Y-6.2892
X2.3539Y-6.3892
X2.3539Y-6.4892
X2.4443Y-2.4506
X2.4443Y-2.5506
X2.5443Y-2.4506
X2.5443Y-2.5506
X2.5476Y-4.002
X2.5476Y-4.102
X2.5476Y-4.202
X2.5476Y-4.302
X2.5476Y-4.402
X2.6443Y-2.4506
X2.6443Y-2.5506
X2.7443Y-2.4506
X2.7443Y-2.5506
X2.8443Y-2.4506
X2.8443Y-2.5506
X2.9138Y-6.0882
X2.9138Y-6.1882
X2.9138Y-6.2882
X2.9138Y-6.3882
X2.9138Y-6.4882
X2.9138Y-6.5882
X2.9443Y-2.4506
X2.9443Y-2.5506
X3.0443Y-2.4506
X3.0443Y-2.5506
X3.05Y-3.4252
X3.0906Y-5.5118
X3.1443Y-2.4506
X3.1443Y-2.5506
X3.15Y-3.4252
X3.1906Y-5.5118
X3.2443Y-2.4506
X3.2443Y-2.5506
X3.25Y-3.4252
X3.2906Y-5.5118
X3.3443Y-2.4506
X3.3443Y-2.5506
X3.35Y-3.4252
X3.3906Y-5.5118
X3.4443Y-2.4506
X3.4443Y-2.5506
X3.45Y-3.4252
X3.4906Y-5.5118
X3.55Y-3.4252
X3.5906Y-5.5118
X3.65Y-3.4252
X3.685Y-2.8024
X3.685Y-2.9024
X3.685Y-3.0024
X3.685Y-3.1024
X3.6906Y-5.5118
X3.75Y-3.4252
X3.785Y-2.8024
X3.785Y-2.9024
X3.785Y-3.0024
X3.785Y-3.1024
X3.7906Y-5.5118
T6
X2.5008Y-0.948
X2.5008Y-1.048
X2.6008Y-0.948
X2.6008Y-1.048
X2.7008Y-0.948
X2.7008Y-1.048
X2.8008Y-0.948
X2.8008Y-1.048
X2.9008Y-0.948
X2.9008Y-1.048
T7
X1.3512Y-0.878
X1.3512Y-1.278
X1.7551Y-4.9626
X1.7551Y-5.1398
X2.011Y-4.9626
X2.011Y-5.1398
X2.2276Y-4.9626
X2.2276Y-5.1398
X2.351Y-3.4138
X2.451Y-3.4138
X2.4835Y-4.9626
X2.4835Y-5.1398
X2.551Y-3.4138
X2.7Y-4.9626
X2.7Y-5.1398
X2.9559Y-4.9626
X2.9559Y-5.1398
X3.0874Y-1.2969
X3.1724Y-4.9626
X3.1724Y-5.1398
X3.4283Y-4.9626
X3.4283Y-5.1398
X3.4874Y-1.2969
T8
X1.0965Y-5.7488
X1.098Y-6.3394
X1.5051Y-6.3394
X1.5055Y-5.7488
X1.9114Y-6.3402
X1.9126Y-5.7488
X2.8476Y-6.7717
X3.2547Y-5.75
X3.258Y-6.3396
X3.6614Y-5.75
X3.6614Y-6.3394
T9
X1.0965Y-5.8709
X1.0965Y-6.1976
X1.098Y-6.4614
X1.098Y-6.7882
X1.5051Y-6.4614
X1.5051Y-6.7882
X1.5055Y-5.8709
X1.5055Y-6.1976
X1.9114Y-6.4622
X1.9114Y-6.789
X1.9126Y-5.8709
X1.9126Y-6.1976
X2.3988Y-6.7717
X2.7256Y-6.7717
X3.2547Y-5.872
X3.2547Y-6.1988
X3.258Y-6.4616
X3.258Y-6.7884
X3.6614Y-5.872
X3.6614Y-6.1988
X3.6614Y-6.4614
X3.6614Y-6.7882
T10
X1.0965Y-6.0039
X1.098Y-6.5945
X1.5051Y-6.5945
X1.5055Y-6.0039
X1.9114Y-6.5953
X1.9126Y-6.0039
X2.5925Y-6.7717
X3.2547Y-6.0051
X3.258Y-6.5947
X3.6614Y-6.0051
X3.6614Y-6.5945
T11
X1.0835Y-0.8209
X1.0835Y-2.2665
X3.7315Y-0.8209
X3.7315Y-2.2665
T0
M30
