%TF.GenerationSoftware,KiCad,Pcbnew,(5.99.0-9544-g366189b864)*%
%TF.CreationDate,2021-03-13T12:07:28+00:00*%
%TF.ProjectId,europi_main_v2,6575726f-7069-45f6-9d61-696e5f76322e,2.0*%
%TF.SameCoordinates,Original*%
%TF.FileFunction,Legend,Bot*%
%TF.FilePolarity,Positive*%
%FSLAX46Y46*%
G04 Gerber Fmt 4.6, Leading zero omitted, Abs format (unit mm)*
G04 Created by KiCad (PCBNEW (5.99.0-9544-g366189b864)) date 2021-03-13 12:07:28*
%MOMM*%
%LPD*%
G01*
G04 APERTURE LIST*
%ADD10C,0.300000*%
%ADD11C,0.150000*%
%ADD12C,0.120000*%
%ADD13C,0.010000*%
G04 APERTURE END LIST*
D10*
X60842857Y-81852857D02*
X60342857Y-81852857D01*
X60128571Y-82638571D02*
X60842857Y-82638571D01*
X60842857Y-81138571D01*
X60128571Y-81138571D01*
X58842857Y-81638571D02*
X58842857Y-82638571D01*
X59485714Y-81638571D02*
X59485714Y-82424285D01*
X59414285Y-82567142D01*
X59271428Y-82638571D01*
X59057142Y-82638571D01*
X58914285Y-82567142D01*
X58842857Y-82495714D01*
X58128571Y-82638571D02*
X58128571Y-81638571D01*
X58128571Y-81924285D02*
X58057142Y-81781428D01*
X57985714Y-81710000D01*
X57842857Y-81638571D01*
X57700000Y-81638571D01*
X56985714Y-82638571D02*
X57128571Y-82567142D01*
X57200000Y-82495714D01*
X57271428Y-82352857D01*
X57271428Y-81924285D01*
X57200000Y-81781428D01*
X57128571Y-81710000D01*
X56985714Y-81638571D01*
X56771428Y-81638571D01*
X56628571Y-81710000D01*
X56557142Y-81781428D01*
X56485714Y-81924285D01*
X56485714Y-82352857D01*
X56557142Y-82495714D01*
X56628571Y-82567142D01*
X56771428Y-82638571D01*
X56985714Y-82638571D01*
X55842857Y-82638571D02*
X55842857Y-81138571D01*
X55271428Y-81138571D01*
X55128571Y-81210000D01*
X55057142Y-81281428D01*
X54985714Y-81424285D01*
X54985714Y-81638571D01*
X55057142Y-81781428D01*
X55128571Y-81852857D01*
X55271428Y-81924285D01*
X55842857Y-81924285D01*
X54342857Y-82638571D02*
X54342857Y-81638571D01*
X54342857Y-81138571D02*
X54414285Y-81210000D01*
X54342857Y-81281428D01*
X54271428Y-81210000D01*
X54342857Y-81138571D01*
X54342857Y-81281428D01*
X51628571Y-82638571D02*
X52128571Y-81924285D01*
X52485714Y-82638571D02*
X52485714Y-81138571D01*
X51914285Y-81138571D01*
X51771428Y-81210000D01*
X51700000Y-81281428D01*
X51628571Y-81424285D01*
X51628571Y-81638571D01*
X51700000Y-81781428D01*
X51771428Y-81852857D01*
X51914285Y-81924285D01*
X52485714Y-81924285D01*
X50414285Y-82567142D02*
X50557142Y-82638571D01*
X50842857Y-82638571D01*
X50985714Y-82567142D01*
X51057142Y-82424285D01*
X51057142Y-81852857D01*
X50985714Y-81710000D01*
X50842857Y-81638571D01*
X50557142Y-81638571D01*
X50414285Y-81710000D01*
X50342857Y-81852857D01*
X50342857Y-81995714D01*
X51057142Y-82138571D01*
X49842857Y-81638571D02*
X49485714Y-82638571D01*
X49128571Y-81638571D01*
X47485714Y-81281428D02*
X47414285Y-81210000D01*
X47271428Y-81138571D01*
X46914285Y-81138571D01*
X46771428Y-81210000D01*
X46700000Y-81281428D01*
X46628571Y-81424285D01*
X46628571Y-81567142D01*
X46700000Y-81781428D01*
X47557142Y-82638571D01*
X46628571Y-82638571D01*
X45985714Y-82495714D02*
X45914285Y-82567142D01*
X45985714Y-82638571D01*
X46057142Y-82567142D01*
X45985714Y-82495714D01*
X45985714Y-82638571D01*
X44985714Y-81138571D02*
X44842857Y-81138571D01*
X44700000Y-81210000D01*
X44628571Y-81281428D01*
X44557142Y-81424285D01*
X44485714Y-81710000D01*
X44485714Y-82067142D01*
X44557142Y-82352857D01*
X44628571Y-82495714D01*
X44700000Y-82567142D01*
X44842857Y-82638571D01*
X44985714Y-82638571D01*
X45128571Y-82567142D01*
X45200000Y-82495714D01*
X45271428Y-82352857D01*
X45342857Y-82067142D01*
X45342857Y-81710000D01*
X45271428Y-81424285D01*
X45200000Y-81281428D01*
X45128571Y-81210000D01*
X44985714Y-81138571D01*
X89161428Y-59758571D02*
X90018571Y-59758571D01*
X89590000Y-59758571D02*
X89590000Y-58258571D01*
X89732857Y-58472857D01*
X89875714Y-58615714D01*
X90018571Y-58687142D01*
D11*
%TO.C,J10*%
X100247619Y-20533333D02*
X99533333Y-20533333D01*
X99390476Y-20580952D01*
X99295238Y-20676190D01*
X99247619Y-20819047D01*
X99247619Y-20914285D01*
X100152380Y-20104761D02*
X100200000Y-20057142D01*
X100247619Y-19961904D01*
X100247619Y-19723809D01*
X100200000Y-19628571D01*
X100152380Y-19580952D01*
X100057142Y-19533333D01*
X99961904Y-19533333D01*
X99819047Y-19580952D01*
X99247619Y-20152380D01*
X99247619Y-19533333D01*
X95328571Y-42547619D02*
X95328571Y-43547619D01*
X95661904Y-42833333D01*
X95995238Y-43547619D01*
X95995238Y-42547619D01*
X96471428Y-42547619D02*
X96471428Y-43547619D01*
X96900000Y-42595238D02*
X97042857Y-42547619D01*
X97280952Y-42547619D01*
X97376190Y-42595238D01*
X97423809Y-42642857D01*
X97471428Y-42738095D01*
X97471428Y-42833333D01*
X97423809Y-42928571D01*
X97376190Y-42976190D01*
X97280952Y-43023809D01*
X97090476Y-43071428D01*
X96995238Y-43119047D01*
X96947619Y-43166666D01*
X96900000Y-43261904D01*
X96900000Y-43357142D01*
X96947619Y-43452380D01*
X96995238Y-43500000D01*
X97090476Y-43547619D01*
X97328571Y-43547619D01*
X97471428Y-43500000D01*
X98090476Y-43547619D02*
X98280952Y-43547619D01*
X98376190Y-43500000D01*
X98471428Y-43404761D01*
X98519047Y-43214285D01*
X98519047Y-42880952D01*
X98471428Y-42690476D01*
X98376190Y-42595238D01*
X98280952Y-42547619D01*
X98090476Y-42547619D01*
X97995238Y-42595238D01*
X97900000Y-42690476D01*
X97852380Y-42880952D01*
X97852380Y-43214285D01*
X97900000Y-43404761D01*
X97995238Y-43500000D01*
X98090476Y-43547619D01*
X95328571Y-34947619D02*
X95328571Y-35947619D01*
X95661904Y-35233333D01*
X95995238Y-35947619D01*
X95995238Y-34947619D01*
X96661904Y-35947619D02*
X96852380Y-35947619D01*
X96947619Y-35900000D01*
X97042857Y-35804761D01*
X97090476Y-35614285D01*
X97090476Y-35280952D01*
X97042857Y-35090476D01*
X96947619Y-34995238D01*
X96852380Y-34947619D01*
X96661904Y-34947619D01*
X96566666Y-34995238D01*
X96471428Y-35090476D01*
X96423809Y-35280952D01*
X96423809Y-35614285D01*
X96471428Y-35804761D01*
X96566666Y-35900000D01*
X96661904Y-35947619D01*
X97471428Y-34995238D02*
X97614285Y-34947619D01*
X97852380Y-34947619D01*
X97947619Y-34995238D01*
X97995238Y-35042857D01*
X98042857Y-35138095D01*
X98042857Y-35233333D01*
X97995238Y-35328571D01*
X97947619Y-35376190D01*
X97852380Y-35423809D01*
X97661904Y-35471428D01*
X97566666Y-35519047D01*
X97519047Y-35566666D01*
X97471428Y-35661904D01*
X97471428Y-35757142D01*
X97519047Y-35852380D01*
X97566666Y-35900000D01*
X97661904Y-35947619D01*
X97900000Y-35947619D01*
X98042857Y-35900000D01*
X98471428Y-34947619D02*
X98471428Y-35947619D01*
X97533333Y-27342857D02*
X97485714Y-27295238D01*
X97342857Y-27247619D01*
X97247619Y-27247619D01*
X97104761Y-27295238D01*
X97009523Y-27390476D01*
X96961904Y-27485714D01*
X96914285Y-27676190D01*
X96914285Y-27819047D01*
X96961904Y-28009523D01*
X97009523Y-28104761D01*
X97104761Y-28200000D01*
X97247619Y-28247619D01*
X97342857Y-28247619D01*
X97485714Y-28200000D01*
X97533333Y-28152380D01*
X97914285Y-27295238D02*
X98057142Y-27247619D01*
X98295238Y-27247619D01*
X98390476Y-27295238D01*
X98438095Y-27342857D01*
X98485714Y-27438095D01*
X98485714Y-27533333D01*
X98438095Y-27628571D01*
X98390476Y-27676190D01*
X98295238Y-27723809D01*
X98104761Y-27771428D01*
X98009523Y-27819047D01*
X97961904Y-27866666D01*
X97914285Y-27961904D01*
X97914285Y-28057142D01*
X97961904Y-28152380D01*
X98009523Y-28200000D01*
X98104761Y-28247619D01*
X98342857Y-28247619D01*
X98485714Y-28200000D01*
X28523333Y-42602857D02*
X28475714Y-42555238D01*
X28332857Y-42507619D01*
X28237619Y-42507619D01*
X28094761Y-42555238D01*
X27999523Y-42650476D01*
X27951904Y-42745714D01*
X27904285Y-42936190D01*
X27904285Y-43079047D01*
X27951904Y-43269523D01*
X27999523Y-43364761D01*
X28094761Y-43460000D01*
X28237619Y-43507619D01*
X28332857Y-43507619D01*
X28475714Y-43460000D01*
X28523333Y-43412380D01*
X28904285Y-42555238D02*
X29047142Y-42507619D01*
X29285238Y-42507619D01*
X29380476Y-42555238D01*
X29428095Y-42602857D01*
X29475714Y-42698095D01*
X29475714Y-42793333D01*
X29428095Y-42888571D01*
X29380476Y-42936190D01*
X29285238Y-42983809D01*
X29094761Y-43031428D01*
X28999523Y-43079047D01*
X28951904Y-43126666D01*
X28904285Y-43221904D01*
X28904285Y-43317142D01*
X28951904Y-43412380D01*
X28999523Y-43460000D01*
X29094761Y-43507619D01*
X29332857Y-43507619D01*
X29475714Y-43460000D01*
X95207142Y-48647619D02*
X95778571Y-48647619D01*
X95492857Y-47647619D02*
X95492857Y-48647619D01*
X95873809Y-47552380D02*
X96635714Y-47552380D01*
X97445238Y-47742857D02*
X97397619Y-47695238D01*
X97254761Y-47647619D01*
X97159523Y-47647619D01*
X97016666Y-47695238D01*
X96921428Y-47790476D01*
X96873809Y-47885714D01*
X96826190Y-48076190D01*
X96826190Y-48219047D01*
X96873809Y-48409523D01*
X96921428Y-48504761D01*
X97016666Y-48600000D01*
X97159523Y-48647619D01*
X97254761Y-48647619D01*
X97397619Y-48600000D01*
X97445238Y-48552380D01*
X97826190Y-47695238D02*
X97969047Y-47647619D01*
X98207142Y-47647619D01*
X98302380Y-47695238D01*
X98350000Y-47742857D01*
X98397619Y-47838095D01*
X98397619Y-47933333D01*
X98350000Y-48028571D01*
X98302380Y-48076190D01*
X98207142Y-48123809D01*
X98016666Y-48171428D01*
X97921428Y-48219047D01*
X97873809Y-48266666D01*
X97826190Y-48361904D01*
X97826190Y-48457142D01*
X97873809Y-48552380D01*
X97921428Y-48600000D01*
X98016666Y-48647619D01*
X98254761Y-48647619D01*
X98397619Y-48600000D01*
X96388095Y-25700000D02*
X96292857Y-25747619D01*
X96150000Y-25747619D01*
X96007142Y-25700000D01*
X95911904Y-25604761D01*
X95864285Y-25509523D01*
X95816666Y-25319047D01*
X95816666Y-25176190D01*
X95864285Y-24985714D01*
X95911904Y-24890476D01*
X96007142Y-24795238D01*
X96150000Y-24747619D01*
X96245238Y-24747619D01*
X96388095Y-24795238D01*
X96435714Y-24842857D01*
X96435714Y-25176190D01*
X96245238Y-25176190D01*
X96864285Y-24747619D02*
X96864285Y-25747619D01*
X97435714Y-24747619D01*
X97435714Y-25747619D01*
X97911904Y-24747619D02*
X97911904Y-25747619D01*
X98150000Y-25747619D01*
X98292857Y-25700000D01*
X98388095Y-25604761D01*
X98435714Y-25509523D01*
X98483333Y-25319047D01*
X98483333Y-25176190D01*
X98435714Y-24985714D01*
X98388095Y-24890476D01*
X98292857Y-24795238D01*
X98150000Y-24747619D01*
X97911904Y-24747619D01*
X94887619Y-29867619D02*
X94554285Y-30343809D01*
X94316190Y-29867619D02*
X94316190Y-30867619D01*
X94697142Y-30867619D01*
X94792380Y-30820000D01*
X94840000Y-30772380D01*
X94887619Y-30677142D01*
X94887619Y-30534285D01*
X94840000Y-30439047D01*
X94792380Y-30391428D01*
X94697142Y-30343809D01*
X94316190Y-30343809D01*
X95316190Y-30391428D02*
X95649523Y-30391428D01*
X95792380Y-29867619D02*
X95316190Y-29867619D01*
X95316190Y-30867619D01*
X95792380Y-30867619D01*
X96173333Y-29915238D02*
X96316190Y-29867619D01*
X96554285Y-29867619D01*
X96649523Y-29915238D01*
X96697142Y-29962857D01*
X96744761Y-30058095D01*
X96744761Y-30153333D01*
X96697142Y-30248571D01*
X96649523Y-30296190D01*
X96554285Y-30343809D01*
X96363809Y-30391428D01*
X96268571Y-30439047D01*
X96220952Y-30486666D01*
X96173333Y-30581904D01*
X96173333Y-30677142D01*
X96220952Y-30772380D01*
X96268571Y-30820000D01*
X96363809Y-30867619D01*
X96601904Y-30867619D01*
X96744761Y-30820000D01*
X97173333Y-30391428D02*
X97506666Y-30391428D01*
X97649523Y-29867619D02*
X97173333Y-29867619D01*
X97173333Y-30867619D01*
X97649523Y-30867619D01*
X97935238Y-30867619D02*
X98506666Y-30867619D01*
X98220952Y-29867619D02*
X98220952Y-30867619D01*
X27888571Y-39997619D02*
X27888571Y-40997619D01*
X28221904Y-40283333D01*
X28555238Y-40997619D01*
X28555238Y-39997619D01*
X29221904Y-40997619D02*
X29412380Y-40997619D01*
X29507619Y-40950000D01*
X29602857Y-40854761D01*
X29650476Y-40664285D01*
X29650476Y-40330952D01*
X29602857Y-40140476D01*
X29507619Y-40045238D01*
X29412380Y-39997619D01*
X29221904Y-39997619D01*
X29126666Y-40045238D01*
X29031428Y-40140476D01*
X28983809Y-40330952D01*
X28983809Y-40664285D01*
X29031428Y-40854761D01*
X29126666Y-40950000D01*
X29221904Y-40997619D01*
X30031428Y-40045238D02*
X30174285Y-39997619D01*
X30412380Y-39997619D01*
X30507619Y-40045238D01*
X30555238Y-40092857D01*
X30602857Y-40188095D01*
X30602857Y-40283333D01*
X30555238Y-40378571D01*
X30507619Y-40426190D01*
X30412380Y-40473809D01*
X30221904Y-40521428D01*
X30126666Y-40569047D01*
X30079047Y-40616666D01*
X30031428Y-40711904D01*
X30031428Y-40807142D01*
X30079047Y-40902380D01*
X30126666Y-40950000D01*
X30221904Y-40997619D01*
X30460000Y-40997619D01*
X30602857Y-40950000D01*
X31031428Y-39997619D02*
X31031428Y-40997619D01*
X94378571Y-46097619D02*
X94950000Y-46097619D01*
X94664285Y-45097619D02*
X94664285Y-46097619D01*
X95045238Y-45002380D02*
X95807142Y-45002380D01*
X96616666Y-45192857D02*
X96569047Y-45145238D01*
X96426190Y-45097619D01*
X96330952Y-45097619D01*
X96188095Y-45145238D01*
X96092857Y-45240476D01*
X96045238Y-45335714D01*
X95997619Y-45526190D01*
X95997619Y-45669047D01*
X96045238Y-45859523D01*
X96092857Y-45954761D01*
X96188095Y-46050000D01*
X96330952Y-46097619D01*
X96426190Y-46097619D01*
X96569047Y-46050000D01*
X96616666Y-46002380D01*
X97521428Y-45097619D02*
X97045238Y-45097619D01*
X97045238Y-46097619D01*
X97854761Y-45097619D02*
X97854761Y-46097619D01*
X98426190Y-45097619D02*
X97997619Y-45669047D01*
X98426190Y-46097619D02*
X97854761Y-45526190D01*
X94661428Y-55517619D02*
X95232857Y-55517619D01*
X94947142Y-54517619D02*
X94947142Y-55517619D01*
X95328095Y-54422380D02*
X96090000Y-54422380D01*
X96328095Y-54517619D02*
X96328095Y-55517619D01*
X97375714Y-54517619D02*
X97042380Y-54993809D01*
X96804285Y-54517619D02*
X96804285Y-55517619D01*
X97185238Y-55517619D01*
X97280476Y-55470000D01*
X97328095Y-55422380D01*
X97375714Y-55327142D01*
X97375714Y-55184285D01*
X97328095Y-55089047D01*
X97280476Y-55041428D01*
X97185238Y-54993809D01*
X96804285Y-54993809D01*
X98470952Y-54422380D02*
X98375714Y-54470000D01*
X98280476Y-54565238D01*
X98137619Y-54708095D01*
X98042380Y-54755714D01*
X97947142Y-54755714D01*
X97994761Y-54517619D02*
X97899523Y-54565238D01*
X97804285Y-54660476D01*
X97756666Y-54850952D01*
X97756666Y-55184285D01*
X97804285Y-55374761D01*
X97899523Y-55470000D01*
X97994761Y-55517619D01*
X98185238Y-55517619D01*
X98280476Y-55470000D01*
X98375714Y-55374761D01*
X98423333Y-55184285D01*
X98423333Y-54850952D01*
X98375714Y-54660476D01*
X98280476Y-54565238D01*
X98185238Y-54517619D01*
X97994761Y-54517619D01*
X95109523Y-53457619D02*
X95680952Y-53457619D01*
X95395238Y-52457619D02*
X95395238Y-53457619D01*
X95776190Y-52362380D02*
X96538095Y-52362380D01*
X96776190Y-52457619D02*
X96776190Y-53457619D01*
X97014285Y-53457619D01*
X97157142Y-53410000D01*
X97252380Y-53314761D01*
X97300000Y-53219523D01*
X97347619Y-53029047D01*
X97347619Y-52886190D01*
X97300000Y-52695714D01*
X97252380Y-52600476D01*
X97157142Y-52505238D01*
X97014285Y-52457619D01*
X96776190Y-52457619D01*
X97966666Y-53457619D02*
X98157142Y-53457619D01*
X98252380Y-53410000D01*
X98347619Y-53314761D01*
X98395238Y-53124285D01*
X98395238Y-52790952D01*
X98347619Y-52600476D01*
X98252380Y-52505238D01*
X98157142Y-52457619D01*
X97966666Y-52457619D01*
X97871428Y-52505238D01*
X97776190Y-52600476D01*
X97728571Y-52790952D01*
X97728571Y-53124285D01*
X97776190Y-53314761D01*
X97871428Y-53410000D01*
X97966666Y-53457619D01*
X95914285Y-37535238D02*
X96057142Y-37487619D01*
X96295238Y-37487619D01*
X96390476Y-37535238D01*
X96438095Y-37582857D01*
X96485714Y-37678095D01*
X96485714Y-37773333D01*
X96438095Y-37868571D01*
X96390476Y-37916190D01*
X96295238Y-37963809D01*
X96104761Y-38011428D01*
X96009523Y-38059047D01*
X95961904Y-38106666D01*
X95914285Y-38201904D01*
X95914285Y-38297142D01*
X95961904Y-38392380D01*
X96009523Y-38440000D01*
X96104761Y-38487619D01*
X96342857Y-38487619D01*
X96485714Y-38440000D01*
X97485714Y-37582857D02*
X97438095Y-37535238D01*
X97295238Y-37487619D01*
X97200000Y-37487619D01*
X97057142Y-37535238D01*
X96961904Y-37630476D01*
X96914285Y-37725714D01*
X96866666Y-37916190D01*
X96866666Y-38059047D01*
X96914285Y-38249523D01*
X96961904Y-38344761D01*
X97057142Y-38440000D01*
X97200000Y-38487619D01*
X97295238Y-38487619D01*
X97438095Y-38440000D01*
X97485714Y-38392380D01*
X97914285Y-37487619D02*
X97914285Y-38487619D01*
X98485714Y-37487619D02*
X98057142Y-38059047D01*
X98485714Y-38487619D02*
X97914285Y-37916190D01*
X95914285Y-32407619D02*
X95914285Y-33407619D01*
X96152380Y-33407619D01*
X96295238Y-33360000D01*
X96390476Y-33264761D01*
X96438095Y-33169523D01*
X96485714Y-32979047D01*
X96485714Y-32836190D01*
X96438095Y-32645714D01*
X96390476Y-32550476D01*
X96295238Y-32455238D01*
X96152380Y-32407619D01*
X95914285Y-32407619D01*
X97628571Y-33455238D02*
X96771428Y-32169523D01*
X98533333Y-32502857D02*
X98485714Y-32455238D01*
X98342857Y-32407619D01*
X98247619Y-32407619D01*
X98104761Y-32455238D01*
X98009523Y-32550476D01*
X97961904Y-32645714D01*
X97914285Y-32836190D01*
X97914285Y-32979047D01*
X97961904Y-33169523D01*
X98009523Y-33264761D01*
X98104761Y-33360000D01*
X98247619Y-33407619D01*
X98342857Y-33407619D01*
X98485714Y-33360000D01*
X98533333Y-33312380D01*
X95766666Y-23597619D02*
X96100000Y-22597619D01*
X96433333Y-23597619D01*
X97338095Y-22692857D02*
X97290476Y-22645238D01*
X97147619Y-22597619D01*
X97052380Y-22597619D01*
X96909523Y-22645238D01*
X96814285Y-22740476D01*
X96766666Y-22835714D01*
X96719047Y-23026190D01*
X96719047Y-23169047D01*
X96766666Y-23359523D01*
X96814285Y-23454761D01*
X96909523Y-23550000D01*
X97052380Y-23597619D01*
X97147619Y-23597619D01*
X97290476Y-23550000D01*
X97338095Y-23502380D01*
X98338095Y-22692857D02*
X98290476Y-22645238D01*
X98147619Y-22597619D01*
X98052380Y-22597619D01*
X97909523Y-22645238D01*
X97814285Y-22740476D01*
X97766666Y-22835714D01*
X97719047Y-23026190D01*
X97719047Y-23169047D01*
X97766666Y-23359523D01*
X97814285Y-23454761D01*
X97909523Y-23550000D01*
X98052380Y-23597619D01*
X98147619Y-23597619D01*
X98290476Y-23550000D01*
X98338095Y-23502380D01*
X27894285Y-34995238D02*
X28037142Y-34947619D01*
X28275238Y-34947619D01*
X28370476Y-34995238D01*
X28418095Y-35042857D01*
X28465714Y-35138095D01*
X28465714Y-35233333D01*
X28418095Y-35328571D01*
X28370476Y-35376190D01*
X28275238Y-35423809D01*
X28084761Y-35471428D01*
X27989523Y-35519047D01*
X27941904Y-35566666D01*
X27894285Y-35661904D01*
X27894285Y-35757142D01*
X27941904Y-35852380D01*
X27989523Y-35900000D01*
X28084761Y-35947619D01*
X28322857Y-35947619D01*
X28465714Y-35900000D01*
X29465714Y-35042857D02*
X29418095Y-34995238D01*
X29275238Y-34947619D01*
X29180000Y-34947619D01*
X29037142Y-34995238D01*
X28941904Y-35090476D01*
X28894285Y-35185714D01*
X28846666Y-35376190D01*
X28846666Y-35519047D01*
X28894285Y-35709523D01*
X28941904Y-35804761D01*
X29037142Y-35900000D01*
X29180000Y-35947619D01*
X29275238Y-35947619D01*
X29418095Y-35900000D01*
X29465714Y-35852380D01*
X29894285Y-34947619D02*
X29894285Y-35947619D01*
X30465714Y-34947619D02*
X30037142Y-35519047D01*
X30465714Y-35947619D02*
X29894285Y-35376190D01*
X96707142Y-40247619D02*
X96230952Y-40247619D01*
X96230952Y-41247619D01*
X97040476Y-40771428D02*
X97373809Y-40771428D01*
X97516666Y-40247619D02*
X97040476Y-40247619D01*
X97040476Y-41247619D01*
X97516666Y-41247619D01*
X97945238Y-40247619D02*
X97945238Y-41247619D01*
X98183333Y-41247619D01*
X98326190Y-41200000D01*
X98421428Y-41104761D01*
X98469047Y-41009523D01*
X98516666Y-40819047D01*
X98516666Y-40676190D01*
X98469047Y-40485714D01*
X98421428Y-40390476D01*
X98326190Y-40295238D01*
X98183333Y-40247619D01*
X97945238Y-40247619D01*
X27888571Y-37457619D02*
X27888571Y-38457619D01*
X28221904Y-37743333D01*
X28555238Y-38457619D01*
X28555238Y-37457619D01*
X29031428Y-37457619D02*
X29031428Y-38457619D01*
X29460000Y-37505238D02*
X29602857Y-37457619D01*
X29840952Y-37457619D01*
X29936190Y-37505238D01*
X29983809Y-37552857D01*
X30031428Y-37648095D01*
X30031428Y-37743333D01*
X29983809Y-37838571D01*
X29936190Y-37886190D01*
X29840952Y-37933809D01*
X29650476Y-37981428D01*
X29555238Y-38029047D01*
X29507619Y-38076666D01*
X29460000Y-38171904D01*
X29460000Y-38267142D01*
X29507619Y-38362380D01*
X29555238Y-38410000D01*
X29650476Y-38457619D01*
X29888571Y-38457619D01*
X30031428Y-38410000D01*
X30650476Y-38457619D02*
X30840952Y-38457619D01*
X30936190Y-38410000D01*
X31031428Y-38314761D01*
X31079047Y-38124285D01*
X31079047Y-37790952D01*
X31031428Y-37600476D01*
X30936190Y-37505238D01*
X30840952Y-37457619D01*
X30650476Y-37457619D01*
X30555238Y-37505238D01*
X30460000Y-37600476D01*
X30412380Y-37790952D01*
X30412380Y-38124285D01*
X30460000Y-38314761D01*
X30555238Y-38410000D01*
X30650476Y-38457619D01*
X94621428Y-51247619D02*
X95192857Y-51247619D01*
X94907142Y-50247619D02*
X94907142Y-51247619D01*
X95288095Y-50152380D02*
X96050000Y-50152380D01*
X96288095Y-50247619D02*
X96288095Y-51247619D01*
X96526190Y-51247619D01*
X96669047Y-51200000D01*
X96764285Y-51104761D01*
X96811904Y-51009523D01*
X96859523Y-50819047D01*
X96859523Y-50676190D01*
X96811904Y-50485714D01*
X96764285Y-50390476D01*
X96669047Y-50295238D01*
X96526190Y-50247619D01*
X96288095Y-50247619D01*
X97288095Y-50247619D02*
X97288095Y-51247619D01*
X97764285Y-50247619D02*
X97764285Y-51247619D01*
X98335714Y-50247619D01*
X98335714Y-51247619D01*
D12*
%TO.C,P3*%
X47330000Y-88330000D02*
X47330000Y-87000000D01*
X44730000Y-88330000D02*
X44730000Y-85670000D01*
X44730000Y-85670000D02*
X26890000Y-85670000D01*
X44730000Y-88330000D02*
X26890000Y-88330000D01*
X26890000Y-88330000D02*
X26890000Y-85670000D01*
X46000000Y-88330000D02*
X47330000Y-88330000D01*
%TO.C,P4*%
X96580000Y-88330000D02*
X96580000Y-87000000D01*
X95250000Y-88330000D02*
X96580000Y-88330000D01*
X76140000Y-88330000D02*
X76140000Y-85670000D01*
X93980000Y-88330000D02*
X76140000Y-88330000D01*
X93980000Y-85670000D02*
X76140000Y-85670000D01*
X93980000Y-88330000D02*
X93980000Y-85670000D01*
%TO.C,P6*%
X79770000Y-138670000D02*
X79770000Y-141330000D01*
X79770000Y-138670000D02*
X97610000Y-138670000D01*
X79770000Y-141330000D02*
X97610000Y-141330000D01*
X78500000Y-138670000D02*
X77170000Y-138670000D01*
X97610000Y-138670000D02*
X97610000Y-141330000D01*
X77170000Y-138670000D02*
X77170000Y-140000000D01*
%TO.C,P7*%
X30520000Y-138670000D02*
X48360000Y-138670000D01*
X29250000Y-138670000D02*
X27920000Y-138670000D01*
X27920000Y-138670000D02*
X27920000Y-140000000D01*
X30520000Y-141330000D02*
X48360000Y-141330000D01*
X48360000Y-138670000D02*
X48360000Y-141330000D01*
X30520000Y-138670000D02*
X30520000Y-141330000D01*
D13*
%TO.C,*%
X24513397Y-129694229D02*
X24512764Y-129900534D01*
X24512764Y-129900534D02*
X24590258Y-130193540D01*
X24590258Y-130193540D02*
X24729202Y-130531656D01*
X24729202Y-130531656D02*
X24912917Y-130873290D01*
X24912917Y-130873290D02*
X25124723Y-131176849D01*
X25124723Y-131176849D02*
X25313314Y-131372970D01*
X25313314Y-131372970D02*
X25575681Y-131549757D01*
X25575681Y-131549757D02*
X25815924Y-131640176D01*
X25815924Y-131640176D02*
X25983488Y-131631998D01*
X25983488Y-131631998D02*
X26031237Y-131546619D01*
X26031237Y-131546619D02*
X25943004Y-131475070D01*
X25943004Y-131475070D02*
X25730643Y-131445020D01*
X25730643Y-131445020D02*
X25728780Y-131445019D01*
X25728780Y-131445019D02*
X25414448Y-131360716D01*
X25414448Y-131360716D02*
X25214808Y-131121467D01*
X25214808Y-131121467D02*
X25142017Y-130747756D01*
X25142017Y-130747756D02*
X25161053Y-130488311D01*
X25161053Y-130488311D02*
X25258852Y-130117532D01*
X25258852Y-130117532D02*
X25408720Y-129896629D01*
X25408720Y-129896629D02*
X25592382Y-129848950D01*
X25592382Y-129848950D02*
X25645787Y-129869006D01*
X25645787Y-129869006D02*
X25679311Y-129867866D01*
X25679311Y-129867866D02*
X25578146Y-129774783D01*
X25578146Y-129774783D02*
X25386520Y-129659172D01*
X25386520Y-129659172D02*
X25241693Y-129688846D01*
X25241693Y-129688846D02*
X25115962Y-129883483D01*
X25115962Y-129883483D02*
X25007694Y-130179933D01*
X25007694Y-130179933D02*
X24912523Y-130458671D01*
X24912523Y-130458671D02*
X24852834Y-130564012D01*
X24852834Y-130564012D02*
X24808358Y-130517960D01*
X24808358Y-130517960D02*
X24780481Y-130426589D01*
X24780481Y-130426589D02*
X24726968Y-130120737D01*
X24726968Y-130120737D02*
X24711825Y-129895619D01*
X24711825Y-129895619D02*
X24678928Y-129692823D01*
X24678928Y-129692823D02*
X24608837Y-129616219D01*
X24608837Y-129616219D02*
X24513397Y-129694229D01*
X24513397Y-129694229D02*
X24513397Y-129694229D01*
G36*
X24678928Y-129692823D02*
G01*
X24711825Y-129895619D01*
X24726968Y-130120737D01*
X24780481Y-130426589D01*
X24808358Y-130517960D01*
X24852834Y-130564012D01*
X24912523Y-130458671D01*
X25007694Y-130179933D01*
X25115962Y-129883483D01*
X25241693Y-129688846D01*
X25386520Y-129659172D01*
X25578146Y-129774783D01*
X25679311Y-129867866D01*
X25645787Y-129869006D01*
X25592382Y-129848950D01*
X25408720Y-129896629D01*
X25258852Y-130117532D01*
X25161053Y-130488311D01*
X25142017Y-130747756D01*
X25214808Y-131121467D01*
X25414448Y-131360716D01*
X25728780Y-131445019D01*
X25730643Y-131445020D01*
X25943004Y-131475070D01*
X26031237Y-131546619D01*
X25983488Y-131631998D01*
X25815924Y-131640176D01*
X25575681Y-131549757D01*
X25313314Y-131372970D01*
X25124723Y-131176849D01*
X24912917Y-130873290D01*
X24729202Y-130531656D01*
X24590258Y-130193540D01*
X24512764Y-129900534D01*
X24513397Y-129694229D01*
X24608837Y-129616219D01*
X24678928Y-129692823D01*
G37*
X24678928Y-129692823D02*
X24711825Y-129895619D01*
X24726968Y-130120737D01*
X24780481Y-130426589D01*
X24808358Y-130517960D01*
X24852834Y-130564012D01*
X24912523Y-130458671D01*
X25007694Y-130179933D01*
X25115962Y-129883483D01*
X25241693Y-129688846D01*
X25386520Y-129659172D01*
X25578146Y-129774783D01*
X25679311Y-129867866D01*
X25645787Y-129869006D01*
X25592382Y-129848950D01*
X25408720Y-129896629D01*
X25258852Y-130117532D01*
X25161053Y-130488311D01*
X25142017Y-130747756D01*
X25214808Y-131121467D01*
X25414448Y-131360716D01*
X25728780Y-131445019D01*
X25730643Y-131445020D01*
X25943004Y-131475070D01*
X26031237Y-131546619D01*
X25983488Y-131631998D01*
X25815924Y-131640176D01*
X25575681Y-131549757D01*
X25313314Y-131372970D01*
X25124723Y-131176849D01*
X24912917Y-130873290D01*
X24729202Y-130531656D01*
X24590258Y-130193540D01*
X24512764Y-129900534D01*
X24513397Y-129694229D01*
X24608837Y-129616219D01*
X24678928Y-129692823D01*
X33464774Y-125938260D02*
X33405716Y-126023960D01*
X33405716Y-126023960D02*
X33380761Y-126198296D01*
X33380761Y-126198296D02*
X33441870Y-126261594D01*
X33441870Y-126261594D02*
X33541936Y-126174279D01*
X33541936Y-126174279D02*
X33699626Y-126077292D01*
X33699626Y-126077292D02*
X33809377Y-126075774D01*
X33809377Y-126075774D02*
X33932250Y-126162343D01*
X33932250Y-126162343D02*
X34046877Y-126390751D01*
X34046877Y-126390751D02*
X34167583Y-126790181D01*
X34167583Y-126790181D02*
X34175882Y-126822371D01*
X34175882Y-126822371D02*
X34289043Y-127283791D01*
X34289043Y-127283791D02*
X34345837Y-127576205D01*
X34345837Y-127576205D02*
X34347830Y-127725376D01*
X34347830Y-127725376D02*
X34296588Y-127757065D01*
X34296588Y-127757065D02*
X34230649Y-127723659D01*
X34230649Y-127723659D02*
X34194690Y-127713535D01*
X34194690Y-127713535D02*
X34292705Y-127812819D01*
X34292705Y-127812819D02*
X34508513Y-127966300D01*
X34508513Y-127966300D02*
X34638817Y-127963821D01*
X34638817Y-127963821D02*
X34667237Y-127868699D01*
X34667237Y-127868699D02*
X34697226Y-127798013D01*
X34697226Y-127798013D02*
X34789157Y-127868699D01*
X34789157Y-127868699D02*
X34997111Y-127982897D01*
X34997111Y-127982897D02*
X35178247Y-127929077D01*
X35178247Y-127929077D02*
X35243640Y-127828984D01*
X35243640Y-127828984D02*
X35244051Y-127606825D01*
X35244051Y-127606825D02*
X35073637Y-127606825D01*
X35073637Y-127606825D02*
X35012809Y-127758704D01*
X35012809Y-127758704D02*
X34865593Y-127767936D01*
X34865593Y-127767936D02*
X34684897Y-127639821D01*
X34684897Y-127639821D02*
X34622199Y-127561612D01*
X34622199Y-127561612D02*
X34494384Y-127305495D01*
X34494384Y-127305495D02*
X34475439Y-127093428D01*
X34475439Y-127093428D02*
X34566453Y-126980797D01*
X34566453Y-126980797D02*
X34610676Y-126974619D01*
X34610676Y-126974619D02*
X34784448Y-127059801D01*
X34784448Y-127059801D02*
X34953491Y-127263391D01*
X34953491Y-127263391D02*
X35060733Y-127507455D01*
X35060733Y-127507455D02*
X35073637Y-127606825D01*
X35073637Y-127606825D02*
X35244051Y-127606825D01*
X35244051Y-127606825D02*
X35244093Y-127584136D01*
X35244093Y-127584136D02*
X35122280Y-127291153D01*
X35122280Y-127291153D02*
X34920154Y-127021576D01*
X34920154Y-127021576D02*
X34679668Y-126846947D01*
X34679668Y-126846947D02*
X34664110Y-126840738D01*
X34664110Y-126840738D02*
X34454471Y-126727038D01*
X34454471Y-126727038D02*
X34362611Y-126608761D01*
X34362611Y-126608761D02*
X34362437Y-126604539D01*
X34362437Y-126604539D02*
X34289790Y-126418198D01*
X34289790Y-126418198D02*
X34113499Y-126188960D01*
X34113499Y-126188960D02*
X33896035Y-125982661D01*
X33896035Y-125982661D02*
X33699874Y-125865134D01*
X33699874Y-125865134D02*
X33653076Y-125857018D01*
X33653076Y-125857018D02*
X33464774Y-125938260D01*
X33464774Y-125938260D02*
X33464774Y-125938260D01*
G36*
X35178247Y-127929077D02*
G01*
X34997111Y-127982897D01*
X34789157Y-127868699D01*
X34697226Y-127798013D01*
X34667237Y-127868699D01*
X34638817Y-127963821D01*
X34508513Y-127966300D01*
X34292705Y-127812819D01*
X34194690Y-127713535D01*
X34230649Y-127723659D01*
X34296588Y-127757065D01*
X34347830Y-127725376D01*
X34345837Y-127576205D01*
X34289043Y-127283791D01*
X34242357Y-127093428D01*
X34475439Y-127093428D01*
X34494384Y-127305495D01*
X34622199Y-127561612D01*
X34684897Y-127639821D01*
X34865593Y-127767936D01*
X35012809Y-127758704D01*
X35073637Y-127606825D01*
X35060733Y-127507455D01*
X34953491Y-127263391D01*
X34784448Y-127059801D01*
X34610676Y-126974619D01*
X34566453Y-126980797D01*
X34475439Y-127093428D01*
X34242357Y-127093428D01*
X34175882Y-126822371D01*
X34167583Y-126790181D01*
X34046877Y-126390751D01*
X33932250Y-126162343D01*
X33809377Y-126075774D01*
X33699626Y-126077292D01*
X33541936Y-126174279D01*
X33441870Y-126261594D01*
X33380761Y-126198296D01*
X33405716Y-126023960D01*
X33464774Y-125938260D01*
X33653076Y-125857018D01*
X33699874Y-125865134D01*
X33896035Y-125982661D01*
X34113499Y-126188960D01*
X34289790Y-126418198D01*
X34362437Y-126604539D01*
X34362611Y-126608761D01*
X34454471Y-126727038D01*
X34664110Y-126840738D01*
X34679668Y-126846947D01*
X34920154Y-127021576D01*
X35122280Y-127291153D01*
X35244093Y-127584136D01*
X35244051Y-127606825D01*
X35243640Y-127828984D01*
X35178247Y-127929077D01*
G37*
X35178247Y-127929077D02*
X34997111Y-127982897D01*
X34789157Y-127868699D01*
X34697226Y-127798013D01*
X34667237Y-127868699D01*
X34638817Y-127963821D01*
X34508513Y-127966300D01*
X34292705Y-127812819D01*
X34194690Y-127713535D01*
X34230649Y-127723659D01*
X34296588Y-127757065D01*
X34347830Y-127725376D01*
X34345837Y-127576205D01*
X34289043Y-127283791D01*
X34242357Y-127093428D01*
X34475439Y-127093428D01*
X34494384Y-127305495D01*
X34622199Y-127561612D01*
X34684897Y-127639821D01*
X34865593Y-127767936D01*
X35012809Y-127758704D01*
X35073637Y-127606825D01*
X35060733Y-127507455D01*
X34953491Y-127263391D01*
X34784448Y-127059801D01*
X34610676Y-126974619D01*
X34566453Y-126980797D01*
X34475439Y-127093428D01*
X34242357Y-127093428D01*
X34175882Y-126822371D01*
X34167583Y-126790181D01*
X34046877Y-126390751D01*
X33932250Y-126162343D01*
X33809377Y-126075774D01*
X33699626Y-126077292D01*
X33541936Y-126174279D01*
X33441870Y-126261594D01*
X33380761Y-126198296D01*
X33405716Y-126023960D01*
X33464774Y-125938260D01*
X33653076Y-125857018D01*
X33699874Y-125865134D01*
X33896035Y-125982661D01*
X34113499Y-126188960D01*
X34289790Y-126418198D01*
X34362437Y-126604539D01*
X34362611Y-126608761D01*
X34454471Y-126727038D01*
X34664110Y-126840738D01*
X34679668Y-126846947D01*
X34920154Y-127021576D01*
X35122280Y-127291153D01*
X35244093Y-127584136D01*
X35244051Y-127606825D01*
X35243640Y-127828984D01*
X35178247Y-127929077D01*
X29006696Y-129667275D02*
X28925518Y-129718913D01*
X28925518Y-129718913D02*
X28789542Y-129949007D01*
X28789542Y-129949007D02*
X28818947Y-130241728D01*
X28818947Y-130241728D02*
X29008253Y-130549719D01*
X29008253Y-130549719D02*
X29023586Y-130566583D01*
X29023586Y-130566583D02*
X29310451Y-130785157D01*
X29310451Y-130785157D02*
X29581661Y-130821112D01*
X29581661Y-130821112D02*
X29770117Y-130713499D01*
X29770117Y-130713499D02*
X29880413Y-130486165D01*
X29880413Y-130486165D02*
X29859945Y-130326232D01*
X29859945Y-130326232D02*
X29688837Y-130326232D01*
X29688837Y-130326232D02*
X29639843Y-130620060D01*
X29639843Y-130620060D02*
X29500789Y-130733316D01*
X29500789Y-130733316D02*
X29283572Y-130660579D01*
X29283572Y-130660579D02*
X29163438Y-130565672D01*
X29163438Y-130565672D02*
X29028653Y-130353667D01*
X29028653Y-130353667D02*
X28981543Y-130092711D01*
X28981543Y-130092711D02*
X29025032Y-129863086D01*
X29025032Y-129863086D02*
X29133822Y-129753108D01*
X29133822Y-129753108D02*
X29335999Y-129770332D01*
X29335999Y-129770332D02*
X29531002Y-129927246D01*
X29531002Y-129927246D02*
X29663042Y-130166240D01*
X29663042Y-130166240D02*
X29688837Y-130326232D01*
X29688837Y-130326232D02*
X29859945Y-130326232D01*
X29859945Y-130326232D02*
X29846636Y-130222244D01*
X29846636Y-130222244D02*
X29705581Y-129965066D01*
X29705581Y-129965066D02*
X29494043Y-129757959D01*
X29494043Y-129757959D02*
X29248816Y-129644252D01*
X29248816Y-129644252D02*
X29006696Y-129667275D01*
X29006696Y-129667275D02*
X29006696Y-129667275D01*
G36*
X29770117Y-130713499D02*
G01*
X29581661Y-130821112D01*
X29310451Y-130785157D01*
X29023586Y-130566583D01*
X29008253Y-130549719D01*
X28818947Y-130241728D01*
X28803978Y-130092711D01*
X28981543Y-130092711D01*
X29028653Y-130353667D01*
X29163438Y-130565672D01*
X29283572Y-130660579D01*
X29500789Y-130733316D01*
X29639843Y-130620060D01*
X29688837Y-130326232D01*
X29663042Y-130166240D01*
X29531002Y-129927246D01*
X29335999Y-129770332D01*
X29133822Y-129753108D01*
X29025032Y-129863086D01*
X28981543Y-130092711D01*
X28803978Y-130092711D01*
X28789542Y-129949007D01*
X28925518Y-129718913D01*
X29006696Y-129667275D01*
X29248816Y-129644252D01*
X29494043Y-129757959D01*
X29705581Y-129965066D01*
X29846636Y-130222244D01*
X29859945Y-130326232D01*
X29880413Y-130486165D01*
X29770117Y-130713499D01*
G37*
X29770117Y-130713499D02*
X29581661Y-130821112D01*
X29310451Y-130785157D01*
X29023586Y-130566583D01*
X29008253Y-130549719D01*
X28818947Y-130241728D01*
X28803978Y-130092711D01*
X28981543Y-130092711D01*
X29028653Y-130353667D01*
X29163438Y-130565672D01*
X29283572Y-130660579D01*
X29500789Y-130733316D01*
X29639843Y-130620060D01*
X29688837Y-130326232D01*
X29663042Y-130166240D01*
X29531002Y-129927246D01*
X29335999Y-129770332D01*
X29133822Y-129753108D01*
X29025032Y-129863086D01*
X28981543Y-130092711D01*
X28803978Y-130092711D01*
X28789542Y-129949007D01*
X28925518Y-129718913D01*
X29006696Y-129667275D01*
X29248816Y-129644252D01*
X29494043Y-129757959D01*
X29705581Y-129965066D01*
X29846636Y-130222244D01*
X29859945Y-130326232D01*
X29880413Y-130486165D01*
X29770117Y-130713499D01*
X33781896Y-129667275D02*
X33700718Y-129718913D01*
X33700718Y-129718913D02*
X33564742Y-129949007D01*
X33564742Y-129949007D02*
X33594147Y-130241728D01*
X33594147Y-130241728D02*
X33783453Y-130549719D01*
X33783453Y-130549719D02*
X33798786Y-130566583D01*
X33798786Y-130566583D02*
X34085651Y-130785157D01*
X34085651Y-130785157D02*
X34356861Y-130821112D01*
X34356861Y-130821112D02*
X34545317Y-130713499D01*
X34545317Y-130713499D02*
X34655613Y-130486165D01*
X34655613Y-130486165D02*
X34635145Y-130326232D01*
X34635145Y-130326232D02*
X34464037Y-130326232D01*
X34464037Y-130326232D02*
X34415043Y-130620060D01*
X34415043Y-130620060D02*
X34275989Y-130733316D01*
X34275989Y-130733316D02*
X34058772Y-130660579D01*
X34058772Y-130660579D02*
X33938638Y-130565672D01*
X33938638Y-130565672D02*
X33803853Y-130353667D01*
X33803853Y-130353667D02*
X33756743Y-130092711D01*
X33756743Y-130092711D02*
X33800232Y-129863086D01*
X33800232Y-129863086D02*
X33909022Y-129753108D01*
X33909022Y-129753108D02*
X34111199Y-129770332D01*
X34111199Y-129770332D02*
X34306202Y-129927246D01*
X34306202Y-129927246D02*
X34438242Y-130166240D01*
X34438242Y-130166240D02*
X34464037Y-130326232D01*
X34464037Y-130326232D02*
X34635145Y-130326232D01*
X34635145Y-130326232D02*
X34621836Y-130222244D01*
X34621836Y-130222244D02*
X34480781Y-129965066D01*
X34480781Y-129965066D02*
X34269243Y-129757959D01*
X34269243Y-129757959D02*
X34024016Y-129644252D01*
X34024016Y-129644252D02*
X33781896Y-129667275D01*
X33781896Y-129667275D02*
X33781896Y-129667275D01*
G36*
X34545317Y-130713499D02*
G01*
X34356861Y-130821112D01*
X34085651Y-130785157D01*
X33798786Y-130566583D01*
X33783453Y-130549719D01*
X33594147Y-130241728D01*
X33579178Y-130092711D01*
X33756743Y-130092711D01*
X33803853Y-130353667D01*
X33938638Y-130565672D01*
X34058772Y-130660579D01*
X34275989Y-130733316D01*
X34415043Y-130620060D01*
X34464037Y-130326232D01*
X34438242Y-130166240D01*
X34306202Y-129927246D01*
X34111199Y-129770332D01*
X33909022Y-129753108D01*
X33800232Y-129863086D01*
X33756743Y-130092711D01*
X33579178Y-130092711D01*
X33564742Y-129949007D01*
X33700718Y-129718913D01*
X33781896Y-129667275D01*
X34024016Y-129644252D01*
X34269243Y-129757959D01*
X34480781Y-129965066D01*
X34621836Y-130222244D01*
X34635145Y-130326232D01*
X34655613Y-130486165D01*
X34545317Y-130713499D01*
G37*
X34545317Y-130713499D02*
X34356861Y-130821112D01*
X34085651Y-130785157D01*
X33798786Y-130566583D01*
X33783453Y-130549719D01*
X33594147Y-130241728D01*
X33579178Y-130092711D01*
X33756743Y-130092711D01*
X33803853Y-130353667D01*
X33938638Y-130565672D01*
X34058772Y-130660579D01*
X34275989Y-130733316D01*
X34415043Y-130620060D01*
X34464037Y-130326232D01*
X34438242Y-130166240D01*
X34306202Y-129927246D01*
X34111199Y-129770332D01*
X33909022Y-129753108D01*
X33800232Y-129863086D01*
X33756743Y-130092711D01*
X33579178Y-130092711D01*
X33564742Y-129949007D01*
X33700718Y-129718913D01*
X33781896Y-129667275D01*
X34024016Y-129644252D01*
X34269243Y-129757959D01*
X34480781Y-129965066D01*
X34621836Y-130222244D01*
X34635145Y-130326232D01*
X34655613Y-130486165D01*
X34545317Y-130713499D01*
X30026332Y-128728525D02*
X29993637Y-128803419D01*
X29993637Y-128803419D02*
X30080464Y-128880225D01*
X30080464Y-128880225D02*
X30243721Y-128905019D01*
X30243721Y-128905019D02*
X30415942Y-128940434D01*
X30415942Y-128940434D02*
X30526717Y-129081487D01*
X30526717Y-129081487D02*
X30605999Y-129321674D01*
X30605999Y-129321674D02*
X30673990Y-129632800D01*
X30673990Y-129632800D02*
X30654572Y-129778673D01*
X30654572Y-129778673D02*
X30536924Y-129782255D01*
X30536924Y-129782255D02*
X30415419Y-129726050D01*
X30415419Y-129726050D02*
X30224709Y-129638885D01*
X30224709Y-129638885D02*
X30139423Y-129616219D01*
X30139423Y-129616219D02*
X30107893Y-129702590D01*
X30107893Y-129702590D02*
X30121616Y-129915781D01*
X30121616Y-129915781D02*
X30171159Y-130186911D01*
X30171159Y-130186911D02*
X30247088Y-130447097D01*
X30247088Y-130447097D02*
X30256632Y-130472057D01*
X30256632Y-130472057D02*
X30286144Y-130611840D01*
X30286144Y-130611840D02*
X30178584Y-130612215D01*
X30178584Y-130612215D02*
X30138276Y-130598808D01*
X30138276Y-130598808D02*
X30004328Y-130556592D01*
X30004328Y-130556592D02*
X30030976Y-130596738D01*
X30030976Y-130596738D02*
X30140056Y-130682769D01*
X30140056Y-130682769D02*
X30360124Y-130820513D01*
X30360124Y-130820513D02*
X30475297Y-130803193D01*
X30475297Y-130803193D02*
X30490796Y-130621813D01*
X30490796Y-130621813D02*
X30411843Y-130267376D01*
X30411843Y-130267376D02*
X30401775Y-130231877D01*
X30401775Y-130231877D02*
X30338340Y-129956610D01*
X30338340Y-129956610D02*
X30367243Y-129844445D01*
X30367243Y-129844445D02*
X30503215Y-129870687D01*
X30503215Y-129870687D02*
X30591085Y-129914515D01*
X30591085Y-129914515D02*
X30750536Y-130081014D01*
X30750536Y-130081014D02*
X30885021Y-130354704D01*
X30885021Y-130354704D02*
X30908503Y-130430746D01*
X30908503Y-130430746D02*
X30999121Y-130682473D01*
X30999121Y-130682473D02*
X31094399Y-130824076D01*
X31094399Y-130824076D02*
X31122000Y-130835419D01*
X31122000Y-130835419D02*
X31185487Y-130757038D01*
X31185487Y-130757038D02*
X31174236Y-130657619D01*
X31174236Y-130657619D02*
X31123216Y-130470236D01*
X31123216Y-130470236D02*
X31041669Y-130156671D01*
X31041669Y-130156671D02*
X30955988Y-129819419D01*
X30955988Y-129819419D02*
X30837493Y-129439832D01*
X30837493Y-129439832D02*
X30695013Y-129112221D01*
X30695013Y-129112221D02*
X30577326Y-128930419D01*
X30577326Y-128930419D02*
X30376766Y-128776411D01*
X30376766Y-128776411D02*
X30171898Y-128704500D01*
X30171898Y-128704500D02*
X30026332Y-128728525D01*
X30026332Y-128728525D02*
X30026332Y-128728525D01*
G36*
X30376766Y-128776411D02*
G01*
X30577326Y-128930419D01*
X30695013Y-129112221D01*
X30837493Y-129439832D01*
X30955988Y-129819419D01*
X31041669Y-130156671D01*
X31123216Y-130470236D01*
X31174236Y-130657619D01*
X31185487Y-130757038D01*
X31122000Y-130835419D01*
X31094399Y-130824076D01*
X30999121Y-130682473D01*
X30908503Y-130430746D01*
X30885021Y-130354704D01*
X30750536Y-130081014D01*
X30591085Y-129914515D01*
X30503215Y-129870687D01*
X30367243Y-129844445D01*
X30338340Y-129956610D01*
X30401775Y-130231877D01*
X30411843Y-130267376D01*
X30490796Y-130621813D01*
X30475297Y-130803193D01*
X30360124Y-130820513D01*
X30140056Y-130682769D01*
X30030976Y-130596738D01*
X30004328Y-130556592D01*
X30138276Y-130598808D01*
X30178584Y-130612215D01*
X30286144Y-130611840D01*
X30256632Y-130472057D01*
X30247088Y-130447097D01*
X30171159Y-130186911D01*
X30121616Y-129915781D01*
X30107893Y-129702590D01*
X30139423Y-129616219D01*
X30224709Y-129638885D01*
X30415419Y-129726050D01*
X30536924Y-129782255D01*
X30654572Y-129778673D01*
X30673990Y-129632800D01*
X30605999Y-129321674D01*
X30526717Y-129081487D01*
X30415942Y-128940434D01*
X30243721Y-128905019D01*
X30080464Y-128880225D01*
X29993637Y-128803419D01*
X30026332Y-128728525D01*
X30171898Y-128704500D01*
X30376766Y-128776411D01*
G37*
X30376766Y-128776411D02*
X30577326Y-128930419D01*
X30695013Y-129112221D01*
X30837493Y-129439832D01*
X30955988Y-129819419D01*
X31041669Y-130156671D01*
X31123216Y-130470236D01*
X31174236Y-130657619D01*
X31185487Y-130757038D01*
X31122000Y-130835419D01*
X31094399Y-130824076D01*
X30999121Y-130682473D01*
X30908503Y-130430746D01*
X30885021Y-130354704D01*
X30750536Y-130081014D01*
X30591085Y-129914515D01*
X30503215Y-129870687D01*
X30367243Y-129844445D01*
X30338340Y-129956610D01*
X30401775Y-130231877D01*
X30411843Y-130267376D01*
X30490796Y-130621813D01*
X30475297Y-130803193D01*
X30360124Y-130820513D01*
X30140056Y-130682769D01*
X30030976Y-130596738D01*
X30004328Y-130556592D01*
X30138276Y-130598808D01*
X30178584Y-130612215D01*
X30286144Y-130611840D01*
X30256632Y-130472057D01*
X30247088Y-130447097D01*
X30171159Y-130186911D01*
X30121616Y-129915781D01*
X30107893Y-129702590D01*
X30139423Y-129616219D01*
X30224709Y-129638885D01*
X30415419Y-129726050D01*
X30536924Y-129782255D01*
X30654572Y-129778673D01*
X30673990Y-129632800D01*
X30605999Y-129321674D01*
X30526717Y-129081487D01*
X30415942Y-128940434D01*
X30243721Y-128905019D01*
X30080464Y-128880225D01*
X29993637Y-128803419D01*
X30026332Y-128728525D01*
X30171898Y-128704500D01*
X30376766Y-128776411D01*
X27584189Y-128734009D02*
X27555237Y-128803419D01*
X27555237Y-128803419D02*
X27641792Y-128881178D01*
X27641792Y-128881178D02*
X27796886Y-128905019D01*
X27796886Y-128905019D02*
X27930640Y-128926990D01*
X27930640Y-128926990D02*
X28026952Y-129021290D01*
X28026952Y-129021290D02*
X28111329Y-129230499D01*
X28111329Y-129230499D02*
X28207706Y-129590819D01*
X28207706Y-129590819D02*
X28301547Y-129965579D01*
X28301547Y-129965579D02*
X28382948Y-130280757D01*
X28382948Y-130280757D02*
X28432872Y-130463139D01*
X28432872Y-130463139D02*
X28452485Y-130586956D01*
X28452485Y-130586956D02*
X28366775Y-130581708D01*
X28366775Y-130581708D02*
X28250652Y-130524555D01*
X28250652Y-130524555D02*
X28088617Y-130444164D01*
X28088617Y-130444164D02*
X28082036Y-130473183D01*
X28082036Y-130473183D02*
X28205984Y-130617435D01*
X28205984Y-130617435D02*
X28405751Y-130783238D01*
X28405751Y-130783238D02*
X28576917Y-130830853D01*
X28576917Y-130830853D02*
X28667263Y-130750065D01*
X28667263Y-130750065D02*
X28671100Y-130708419D01*
X28671100Y-130708419D02*
X28636562Y-130447837D01*
X28636562Y-130447837D02*
X28551184Y-130085331D01*
X28551184Y-130085331D02*
X28434594Y-129684521D01*
X28434594Y-129684521D02*
X28306418Y-129309028D01*
X28306418Y-129309028D02*
X28186281Y-129022475D01*
X28186281Y-129022475D02*
X28115172Y-128906272D01*
X28115172Y-128906272D02*
X27926601Y-128765200D01*
X27926601Y-128765200D02*
X27726546Y-128703543D01*
X27726546Y-128703543D02*
X27584189Y-128734009D01*
X27584189Y-128734009D02*
X27584189Y-128734009D01*
G36*
X27926601Y-128765200D02*
G01*
X28115172Y-128906272D01*
X28186281Y-129022475D01*
X28306418Y-129309028D01*
X28434594Y-129684521D01*
X28551184Y-130085331D01*
X28636562Y-130447837D01*
X28671100Y-130708419D01*
X28667263Y-130750065D01*
X28576917Y-130830853D01*
X28405751Y-130783238D01*
X28205984Y-130617435D01*
X28082036Y-130473183D01*
X28088617Y-130444164D01*
X28250652Y-130524555D01*
X28366775Y-130581708D01*
X28452485Y-130586956D01*
X28432872Y-130463139D01*
X28382948Y-130280757D01*
X28301547Y-129965579D01*
X28207706Y-129590819D01*
X28111329Y-129230499D01*
X28026952Y-129021290D01*
X27930640Y-128926990D01*
X27796886Y-128905019D01*
X27641792Y-128881178D01*
X27555237Y-128803419D01*
X27584189Y-128734009D01*
X27726546Y-128703543D01*
X27926601Y-128765200D01*
G37*
X27926601Y-128765200D02*
X28115172Y-128906272D01*
X28186281Y-129022475D01*
X28306418Y-129309028D01*
X28434594Y-129684521D01*
X28551184Y-130085331D01*
X28636562Y-130447837D01*
X28671100Y-130708419D01*
X28667263Y-130750065D01*
X28576917Y-130830853D01*
X28405751Y-130783238D01*
X28205984Y-130617435D01*
X28082036Y-130473183D01*
X28088617Y-130444164D01*
X28250652Y-130524555D01*
X28366775Y-130581708D01*
X28452485Y-130586956D01*
X28432872Y-130463139D01*
X28382948Y-130280757D01*
X28301547Y-129965579D01*
X28207706Y-129590819D01*
X28111329Y-129230499D01*
X28026952Y-129021290D01*
X27930640Y-128926990D01*
X27796886Y-128905019D01*
X27641792Y-128881178D01*
X27555237Y-128803419D01*
X27584189Y-128734009D01*
X27726546Y-128703543D01*
X27926601Y-128765200D01*
X32048948Y-129661248D02*
X32025637Y-129784365D01*
X32025637Y-129784365D02*
X32009169Y-129891456D01*
X32009169Y-129891456D02*
X31927273Y-129859463D01*
X31927273Y-129859463D02*
X31826222Y-129772043D01*
X31826222Y-129772043D02*
X31594361Y-129648922D01*
X31594361Y-129648922D02*
X31408448Y-129699521D01*
X31408448Y-129699521D02*
X31317093Y-129905906D01*
X31317093Y-129905906D02*
X31314437Y-129960835D01*
X31314437Y-129960835D02*
X31391145Y-130232173D01*
X31391145Y-130232173D02*
X31581664Y-130520115D01*
X31581664Y-130520115D02*
X31826588Y-130752279D01*
X31826588Y-130752279D02*
X32047666Y-130854207D01*
X32047666Y-130854207D02*
X32253064Y-130980649D01*
X32253064Y-130980649D02*
X32341799Y-131171556D01*
X32341799Y-131171556D02*
X32369527Y-131391124D01*
X32369527Y-131391124D02*
X32274153Y-131509685D01*
X32274153Y-131509685D02*
X32196239Y-131546115D01*
X32196239Y-131546115D02*
X32093262Y-131601424D01*
X32093262Y-131601424D02*
X32152633Y-131630250D01*
X32152633Y-131630250D02*
X32394268Y-131641550D01*
X32394268Y-131641550D02*
X32408980Y-131641778D01*
X32408980Y-131641778D02*
X32676200Y-131639718D01*
X32676200Y-131639718D02*
X32778023Y-131603650D01*
X32778023Y-131603650D02*
X32752183Y-131504874D01*
X32752183Y-131504874D02*
X32701078Y-131419619D01*
X32701078Y-131419619D02*
X32593713Y-131184915D01*
X32593713Y-131184915D02*
X32483850Y-130851188D01*
X32483850Y-130851188D02*
X32440142Y-130683019D01*
X32440142Y-130683019D02*
X32413388Y-130572146D01*
X32413388Y-130572146D02*
X32195743Y-130572146D01*
X32195743Y-130572146D02*
X32172371Y-130641387D01*
X32172371Y-130641387D02*
X32019409Y-130729521D01*
X32019409Y-130729521D02*
X31821509Y-130675040D01*
X31821509Y-130675040D02*
X31733881Y-130597135D01*
X31733881Y-130597135D02*
X31633579Y-130402944D01*
X31633579Y-130402944D02*
X31556341Y-130139935D01*
X31556341Y-130139935D02*
X31534000Y-129909806D01*
X31534000Y-129909806D02*
X31601368Y-129823687D01*
X31601368Y-129823687D02*
X31641591Y-129819419D01*
X31641591Y-129819419D02*
X31834766Y-129901722D01*
X31834766Y-129901722D02*
X32021874Y-130101621D01*
X32021874Y-130101621D02*
X32157377Y-130348601D01*
X32157377Y-130348601D02*
X32195743Y-130572146D01*
X32195743Y-130572146D02*
X32413388Y-130572146D01*
X32413388Y-130572146D02*
X32359387Y-130348359D01*
X32359387Y-130348359D02*
X32288481Y-130071778D01*
X32288481Y-130071778D02*
X32263319Y-129981849D01*
X32263319Y-129981849D02*
X32252519Y-129843295D01*
X32252519Y-129843295D02*
X32375900Y-129848637D01*
X32375900Y-129848637D02*
X32394913Y-129855099D01*
X32394913Y-129855099D02*
X32519747Y-129892509D01*
X32519747Y-129892509D02*
X32484898Y-129846116D01*
X32484898Y-129846116D02*
X32387219Y-129768868D01*
X32387219Y-129768868D02*
X32164147Y-129633023D01*
X32164147Y-129633023D02*
X32048948Y-129661248D01*
X32048948Y-129661248D02*
X32048948Y-129661248D01*
G36*
X32483850Y-130851188D02*
G01*
X32593713Y-131184915D01*
X32701078Y-131419619D01*
X32752183Y-131504874D01*
X32778023Y-131603650D01*
X32676200Y-131639718D01*
X32408980Y-131641778D01*
X32394268Y-131641550D01*
X32152633Y-131630250D01*
X32093262Y-131601424D01*
X32196239Y-131546115D01*
X32274153Y-131509685D01*
X32369527Y-131391124D01*
X32341799Y-131171556D01*
X32253064Y-130980649D01*
X32047666Y-130854207D01*
X31826588Y-130752279D01*
X31581664Y-130520115D01*
X31391145Y-130232173D01*
X31314437Y-129960835D01*
X31316904Y-129909806D01*
X31534000Y-129909806D01*
X31556341Y-130139935D01*
X31633579Y-130402944D01*
X31733881Y-130597135D01*
X31821509Y-130675040D01*
X32019409Y-130729521D01*
X32172371Y-130641387D01*
X32195743Y-130572146D01*
X32157377Y-130348601D01*
X32021874Y-130101621D01*
X31834766Y-129901722D01*
X31641591Y-129819419D01*
X31601368Y-129823687D01*
X31534000Y-129909806D01*
X31316904Y-129909806D01*
X31317093Y-129905906D01*
X31408448Y-129699521D01*
X31594361Y-129648922D01*
X31826222Y-129772043D01*
X31927273Y-129859463D01*
X32009169Y-129891456D01*
X32025637Y-129784365D01*
X32048948Y-129661248D01*
X32164147Y-129633023D01*
X32387219Y-129768868D01*
X32484898Y-129846116D01*
X32519747Y-129892509D01*
X32394913Y-129855099D01*
X32375900Y-129848637D01*
X32252519Y-129843295D01*
X32263319Y-129981849D01*
X32288481Y-130071778D01*
X32359387Y-130348359D01*
X32413388Y-130572146D01*
X32440142Y-130683019D01*
X32483850Y-130851188D01*
G37*
X32483850Y-130851188D02*
X32593713Y-131184915D01*
X32701078Y-131419619D01*
X32752183Y-131504874D01*
X32778023Y-131603650D01*
X32676200Y-131639718D01*
X32408980Y-131641778D01*
X32394268Y-131641550D01*
X32152633Y-131630250D01*
X32093262Y-131601424D01*
X32196239Y-131546115D01*
X32274153Y-131509685D01*
X32369527Y-131391124D01*
X32341799Y-131171556D01*
X32253064Y-130980649D01*
X32047666Y-130854207D01*
X31826588Y-130752279D01*
X31581664Y-130520115D01*
X31391145Y-130232173D01*
X31314437Y-129960835D01*
X31316904Y-129909806D01*
X31534000Y-129909806D01*
X31556341Y-130139935D01*
X31633579Y-130402944D01*
X31733881Y-130597135D01*
X31821509Y-130675040D01*
X32019409Y-130729521D01*
X32172371Y-130641387D01*
X32195743Y-130572146D01*
X32157377Y-130348601D01*
X32021874Y-130101621D01*
X31834766Y-129901722D01*
X31641591Y-129819419D01*
X31601368Y-129823687D01*
X31534000Y-129909806D01*
X31316904Y-129909806D01*
X31317093Y-129905906D01*
X31408448Y-129699521D01*
X31594361Y-129648922D01*
X31826222Y-129772043D01*
X31927273Y-129859463D01*
X32009169Y-129891456D01*
X32025637Y-129784365D01*
X32048948Y-129661248D01*
X32164147Y-129633023D01*
X32387219Y-129768868D01*
X32484898Y-129846116D01*
X32519747Y-129892509D01*
X32394913Y-129855099D01*
X32375900Y-129848637D01*
X32252519Y-129843295D01*
X32263319Y-129981849D01*
X32288481Y-130071778D01*
X32359387Y-130348359D01*
X32413388Y-130572146D01*
X32440142Y-130683019D01*
X32483850Y-130851188D01*
X36181110Y-128879619D02*
X36163949Y-129247480D01*
X36163949Y-129247480D02*
X36130767Y-129564427D01*
X36130767Y-129564427D02*
X36104357Y-129700757D01*
X36104357Y-129700757D02*
X36060694Y-129806715D01*
X36060694Y-129806715D02*
X35996904Y-129809961D01*
X35996904Y-129809961D02*
X35887108Y-129689051D01*
X35887108Y-129689051D02*
X35705428Y-129422536D01*
X35705428Y-129422536D02*
X35631885Y-129309197D01*
X35631885Y-129309197D02*
X35377127Y-128953446D01*
X35377127Y-128953446D02*
X35112788Y-128647528D01*
X35112788Y-128647528D02*
X34871870Y-128423258D01*
X34871870Y-128423258D02*
X34687381Y-128312451D01*
X34687381Y-128312451D02*
X34607266Y-128321523D01*
X34607266Y-128321523D02*
X34614215Y-128432635D01*
X34614215Y-128432635D02*
X34670188Y-128696534D01*
X34670188Y-128696534D02*
X34765458Y-129071485D01*
X34765458Y-129071485D02*
X34867116Y-129436138D01*
X34867116Y-129436138D02*
X34992536Y-129879649D01*
X34992536Y-129879649D02*
X35093362Y-130254197D01*
X35093362Y-130254197D02*
X35157804Y-130514821D01*
X35157804Y-130514821D02*
X35175237Y-130611083D01*
X35175237Y-130611083D02*
X35089049Y-130712482D01*
X35089049Y-130712482D02*
X34946637Y-130763716D01*
X34946637Y-130763716D02*
X34900227Y-130791007D01*
X34900227Y-130791007D02*
X35029160Y-130813207D01*
X35029160Y-130813207D02*
X35188168Y-130821582D01*
X35188168Y-130821582D02*
X35658298Y-130835419D01*
X35658298Y-130835419D02*
X35411733Y-129959920D01*
X35411733Y-129959920D02*
X35306784Y-129567977D01*
X35306784Y-129567977D02*
X35233717Y-129256899D01*
X35233717Y-129256899D02*
X35202927Y-129072954D01*
X35202927Y-129072954D02*
X35205910Y-129043680D01*
X35205910Y-129043680D02*
X35285524Y-129096673D01*
X35285524Y-129096673D02*
X35450131Y-129307798D01*
X35450131Y-129307798D02*
X35686157Y-129657493D01*
X35686157Y-129657493D02*
X35980027Y-130126196D01*
X35980027Y-130126196D02*
X36131992Y-130378219D01*
X36131992Y-130378219D02*
X36495515Y-130987819D01*
X36495515Y-130987819D02*
X36504677Y-130479819D01*
X36504677Y-130479819D02*
X36518382Y-130186816D01*
X36518382Y-130186816D02*
X36546048Y-129864461D01*
X36546048Y-129864461D02*
X36581797Y-129554941D01*
X36581797Y-129554941D02*
X36619753Y-129300441D01*
X36619753Y-129300441D02*
X36654038Y-129143148D01*
X36654038Y-129143148D02*
X36678778Y-129125249D01*
X36678778Y-129125249D02*
X36685662Y-129180607D01*
X36685662Y-129180607D02*
X36750811Y-129516487D01*
X36750811Y-129516487D02*
X36890887Y-129914957D01*
X36890887Y-129914957D02*
X37073672Y-130304029D01*
X37073672Y-130304029D02*
X37266949Y-130611715D01*
X37266949Y-130611715D02*
X37379774Y-130731506D01*
X37379774Y-130731506D02*
X37673047Y-130898430D01*
X37673047Y-130898430D02*
X37929272Y-130930664D01*
X37929272Y-130930664D02*
X38053904Y-130869285D01*
X38053904Y-130869285D02*
X38119833Y-130730429D01*
X38119833Y-130730429D02*
X37999943Y-130648619D01*
X37999943Y-130648619D02*
X37825869Y-130632219D01*
X37825869Y-130632219D02*
X37498323Y-130534016D01*
X37498323Y-130534016D02*
X37217624Y-130244584D01*
X37217624Y-130244584D02*
X36989479Y-129771685D01*
X36989479Y-129771685D02*
X36860368Y-129319342D01*
X36860368Y-129319342D02*
X36766025Y-128895349D01*
X36766025Y-128895349D02*
X36718291Y-128628834D01*
X36718291Y-128628834D02*
X36717874Y-128479329D01*
X36717874Y-128479329D02*
X36765481Y-128406364D01*
X36765481Y-128406364D02*
X36861819Y-128369470D01*
X36861819Y-128369470D02*
X36877037Y-128365454D01*
X36877037Y-128365454D02*
X36898341Y-128335804D01*
X36898341Y-128335804D02*
X36750481Y-128313331D01*
X36750481Y-128313331D02*
X36623037Y-128307204D01*
X36623037Y-128307204D02*
X36191237Y-128295419D01*
X36191237Y-128295419D02*
X36181110Y-128879619D01*
X36181110Y-128879619D02*
X36181110Y-128879619D01*
G36*
X36623037Y-128307204D02*
G01*
X36750481Y-128313331D01*
X36898341Y-128335804D01*
X36877037Y-128365454D01*
X36861819Y-128369470D01*
X36765481Y-128406364D01*
X36717874Y-128479329D01*
X36718291Y-128628834D01*
X36766025Y-128895349D01*
X36860368Y-129319342D01*
X36989479Y-129771685D01*
X37217624Y-130244584D01*
X37498323Y-130534016D01*
X37825869Y-130632219D01*
X37999943Y-130648619D01*
X38119833Y-130730429D01*
X38053904Y-130869285D01*
X37929272Y-130930664D01*
X37673047Y-130898430D01*
X37379774Y-130731506D01*
X37266949Y-130611715D01*
X37073672Y-130304029D01*
X36890887Y-129914957D01*
X36750811Y-129516487D01*
X36685662Y-129180607D01*
X36678778Y-129125249D01*
X36654038Y-129143148D01*
X36619753Y-129300441D01*
X36581797Y-129554941D01*
X36546048Y-129864461D01*
X36518382Y-130186816D01*
X36504677Y-130479819D01*
X36495515Y-130987819D01*
X36131992Y-130378219D01*
X35980027Y-130126196D01*
X35686157Y-129657493D01*
X35450131Y-129307798D01*
X35285524Y-129096673D01*
X35205910Y-129043680D01*
X35202927Y-129072954D01*
X35233717Y-129256899D01*
X35306784Y-129567977D01*
X35411733Y-129959920D01*
X35658298Y-130835419D01*
X35188168Y-130821582D01*
X35029160Y-130813207D01*
X34900227Y-130791007D01*
X34946637Y-130763716D01*
X35089049Y-130712482D01*
X35175237Y-130611083D01*
X35157804Y-130514821D01*
X35093362Y-130254197D01*
X34992536Y-129879649D01*
X34867116Y-129436138D01*
X34765458Y-129071485D01*
X34670188Y-128696534D01*
X34614215Y-128432635D01*
X34607266Y-128321523D01*
X34687381Y-128312451D01*
X34871870Y-128423258D01*
X35112788Y-128647528D01*
X35377127Y-128953446D01*
X35631885Y-129309197D01*
X35705428Y-129422536D01*
X35887108Y-129689051D01*
X35996904Y-129809961D01*
X36060694Y-129806715D01*
X36104357Y-129700757D01*
X36130767Y-129564427D01*
X36163949Y-129247480D01*
X36181110Y-128879619D01*
X36191237Y-128295419D01*
X36623037Y-128307204D01*
G37*
X36623037Y-128307204D02*
X36750481Y-128313331D01*
X36898341Y-128335804D01*
X36877037Y-128365454D01*
X36861819Y-128369470D01*
X36765481Y-128406364D01*
X36717874Y-128479329D01*
X36718291Y-128628834D01*
X36766025Y-128895349D01*
X36860368Y-129319342D01*
X36989479Y-129771685D01*
X37217624Y-130244584D01*
X37498323Y-130534016D01*
X37825869Y-130632219D01*
X37999943Y-130648619D01*
X38119833Y-130730429D01*
X38053904Y-130869285D01*
X37929272Y-130930664D01*
X37673047Y-130898430D01*
X37379774Y-130731506D01*
X37266949Y-130611715D01*
X37073672Y-130304029D01*
X36890887Y-129914957D01*
X36750811Y-129516487D01*
X36685662Y-129180607D01*
X36678778Y-129125249D01*
X36654038Y-129143148D01*
X36619753Y-129300441D01*
X36581797Y-129554941D01*
X36546048Y-129864461D01*
X36518382Y-130186816D01*
X36504677Y-130479819D01*
X36495515Y-130987819D01*
X36131992Y-130378219D01*
X35980027Y-130126196D01*
X35686157Y-129657493D01*
X35450131Y-129307798D01*
X35285524Y-129096673D01*
X35205910Y-129043680D01*
X35202927Y-129072954D01*
X35233717Y-129256899D01*
X35306784Y-129567977D01*
X35411733Y-129959920D01*
X35658298Y-130835419D01*
X35188168Y-130821582D01*
X35029160Y-130813207D01*
X34900227Y-130791007D01*
X34946637Y-130763716D01*
X35089049Y-130712482D01*
X35175237Y-130611083D01*
X35157804Y-130514821D01*
X35093362Y-130254197D01*
X34992536Y-129879649D01*
X34867116Y-129436138D01*
X34765458Y-129071485D01*
X34670188Y-128696534D01*
X34614215Y-128432635D01*
X34607266Y-128321523D01*
X34687381Y-128312451D01*
X34871870Y-128423258D01*
X35112788Y-128647528D01*
X35377127Y-128953446D01*
X35631885Y-129309197D01*
X35705428Y-129422536D01*
X35887108Y-129689051D01*
X35996904Y-129809961D01*
X36060694Y-129806715D01*
X36104357Y-129700757D01*
X36130767Y-129564427D01*
X36163949Y-129247480D01*
X36181110Y-128879619D01*
X36191237Y-128295419D01*
X36623037Y-128307204D01*
X25798202Y-129642500D02*
X25790609Y-129760469D01*
X25790609Y-129760469D02*
X25828551Y-129871569D01*
X25828551Y-129871569D02*
X25896918Y-130109193D01*
X25896918Y-130109193D02*
X25973916Y-130461368D01*
X25973916Y-130461368D02*
X26027600Y-130760569D01*
X26027600Y-130760569D02*
X26134389Y-131215595D01*
X26134389Y-131215595D02*
X26290599Y-131496119D01*
X26290599Y-131496119D02*
X26516052Y-131628673D01*
X26516052Y-131628673D02*
X26690736Y-131648219D01*
X26690736Y-131648219D02*
X26924136Y-131593432D01*
X26924136Y-131593432D02*
X27026917Y-131526299D01*
X27026917Y-131526299D02*
X27120315Y-131348802D01*
X27120315Y-131348802D02*
X26923732Y-131348802D01*
X26923732Y-131348802D02*
X26915658Y-131376597D01*
X26915658Y-131376597D02*
X26779911Y-131527772D01*
X26779911Y-131527772D02*
X26580859Y-131503503D01*
X26580859Y-131503503D02*
X26398531Y-131356340D01*
X26398531Y-131356340D02*
X26272747Y-131098840D01*
X26272747Y-131098840D02*
X26243871Y-130822940D01*
X26243871Y-130822940D02*
X26220748Y-130485791D01*
X26220748Y-130485791D02*
X26146324Y-130193804D01*
X26146324Y-130193804D02*
X26055702Y-129953905D01*
X26055702Y-129953905D02*
X26048107Y-129847388D01*
X26048107Y-129847388D02*
X26128093Y-129820197D01*
X26128093Y-129820197D02*
X26177876Y-129819419D01*
X26177876Y-129819419D02*
X26351648Y-129904601D01*
X26351648Y-129904601D02*
X26520691Y-130108191D01*
X26520691Y-130108191D02*
X26627933Y-130352255D01*
X26627933Y-130352255D02*
X26640837Y-130451625D01*
X26640837Y-130451625D02*
X26560979Y-130605123D01*
X26560979Y-130605123D02*
X26466875Y-130632219D01*
X26466875Y-130632219D02*
X26401644Y-130670543D01*
X26401644Y-130670543D02*
X26495936Y-130794520D01*
X26495936Y-130794520D02*
X26636907Y-130919397D01*
X26636907Y-130919397D02*
X26870519Y-131160517D01*
X26870519Y-131160517D02*
X26923732Y-131348802D01*
X26923732Y-131348802D02*
X27120315Y-131348802D01*
X27120315Y-131348802D02*
X27142213Y-131307188D01*
X27142213Y-131307188D02*
X27058955Y-131102137D01*
X27058955Y-131102137D02*
X26962398Y-131025507D01*
X26962398Y-131025507D02*
X26820138Y-130830680D01*
X26820138Y-130830680D02*
X26819349Y-130682085D01*
X26819349Y-130682085D02*
X26792871Y-130331697D01*
X26792871Y-130331697D02*
X26615657Y-129998930D01*
X26615657Y-129998930D02*
X26335881Y-129742100D01*
X26335881Y-129742100D02*
X26001722Y-129619524D01*
X26001722Y-129619524D02*
X25938832Y-129616219D01*
X25938832Y-129616219D02*
X25798202Y-129642500D01*
X25798202Y-129642500D02*
X25798202Y-129642500D01*
G36*
X26924136Y-131593432D02*
G01*
X26690736Y-131648219D01*
X26516052Y-131628673D01*
X26290599Y-131496119D01*
X26134389Y-131215595D01*
X26027600Y-130760569D01*
X25973916Y-130461368D01*
X25896918Y-130109193D01*
X25828551Y-129871569D01*
X25820293Y-129847388D01*
X26048107Y-129847388D01*
X26055702Y-129953905D01*
X26146324Y-130193804D01*
X26220748Y-130485791D01*
X26243871Y-130822940D01*
X26272747Y-131098840D01*
X26398531Y-131356340D01*
X26580859Y-131503503D01*
X26779911Y-131527772D01*
X26915658Y-131376597D01*
X26923732Y-131348802D01*
X26870519Y-131160517D01*
X26636907Y-130919397D01*
X26495936Y-130794520D01*
X26401644Y-130670543D01*
X26466875Y-130632219D01*
X26560979Y-130605123D01*
X26640837Y-130451625D01*
X26627933Y-130352255D01*
X26520691Y-130108191D01*
X26351648Y-129904601D01*
X26177876Y-129819419D01*
X26128093Y-129820197D01*
X26048107Y-129847388D01*
X25820293Y-129847388D01*
X25790609Y-129760469D01*
X25798202Y-129642500D01*
X25938832Y-129616219D01*
X26001722Y-129619524D01*
X26335881Y-129742100D01*
X26615657Y-129998930D01*
X26792871Y-130331697D01*
X26819349Y-130682085D01*
X26820138Y-130830680D01*
X26962398Y-131025507D01*
X27058955Y-131102137D01*
X27142213Y-131307188D01*
X27120315Y-131348802D01*
X27026917Y-131526299D01*
X26924136Y-131593432D01*
G37*
X26924136Y-131593432D02*
X26690736Y-131648219D01*
X26516052Y-131628673D01*
X26290599Y-131496119D01*
X26134389Y-131215595D01*
X26027600Y-130760569D01*
X25973916Y-130461368D01*
X25896918Y-130109193D01*
X25828551Y-129871569D01*
X25820293Y-129847388D01*
X26048107Y-129847388D01*
X26055702Y-129953905D01*
X26146324Y-130193804D01*
X26220748Y-130485791D01*
X26243871Y-130822940D01*
X26272747Y-131098840D01*
X26398531Y-131356340D01*
X26580859Y-131503503D01*
X26779911Y-131527772D01*
X26915658Y-131376597D01*
X26923732Y-131348802D01*
X26870519Y-131160517D01*
X26636907Y-130919397D01*
X26495936Y-130794520D01*
X26401644Y-130670543D01*
X26466875Y-130632219D01*
X26560979Y-130605123D01*
X26640837Y-130451625D01*
X26627933Y-130352255D01*
X26520691Y-130108191D01*
X26351648Y-129904601D01*
X26177876Y-129819419D01*
X26128093Y-129820197D01*
X26048107Y-129847388D01*
X25820293Y-129847388D01*
X25790609Y-129760469D01*
X25798202Y-129642500D01*
X25938832Y-129616219D01*
X26001722Y-129619524D01*
X26335881Y-129742100D01*
X26615657Y-129998930D01*
X26792871Y-130331697D01*
X26819349Y-130682085D01*
X26820138Y-130830680D01*
X26962398Y-131025507D01*
X27058955Y-131102137D01*
X27142213Y-131307188D01*
X27120315Y-131348802D01*
X27026917Y-131526299D01*
X26924136Y-131593432D01*
X37170684Y-128443054D02*
X37303858Y-128540071D01*
X37303858Y-128540071D02*
X37327261Y-128553076D01*
X37327261Y-128553076D02*
X37592902Y-128781953D01*
X37592902Y-128781953D02*
X37682718Y-129064496D01*
X37682718Y-129064496D02*
X37619266Y-129300901D01*
X37619266Y-129300901D02*
X37524531Y-129511678D01*
X37524531Y-129511678D02*
X37550484Y-129601169D01*
X37550484Y-129601169D02*
X37653567Y-129616219D01*
X37653567Y-129616219D02*
X37808561Y-129533930D01*
X37808561Y-129533930D02*
X37856767Y-129455509D01*
X37856767Y-129455509D02*
X37912802Y-129220836D01*
X37912802Y-129220836D02*
X37918437Y-129142894D01*
X37918437Y-129142894D02*
X37845924Y-128969681D01*
X37845924Y-128969681D02*
X37669795Y-128748607D01*
X37669795Y-128748607D02*
X37452171Y-128542902D01*
X37452171Y-128542902D02*
X37255170Y-128415792D01*
X37255170Y-128415792D02*
X37189653Y-128401086D01*
X37189653Y-128401086D02*
X37170684Y-128443054D01*
X37170684Y-128443054D02*
X37170684Y-128443054D01*
G36*
X37255170Y-128415792D02*
G01*
X37452171Y-128542902D01*
X37669795Y-128748607D01*
X37845924Y-128969681D01*
X37918437Y-129142894D01*
X37912802Y-129220836D01*
X37856767Y-129455509D01*
X37808561Y-129533930D01*
X37653567Y-129616219D01*
X37550484Y-129601169D01*
X37524531Y-129511678D01*
X37619266Y-129300901D01*
X37682718Y-129064496D01*
X37592902Y-128781953D01*
X37327261Y-128553076D01*
X37303858Y-128540071D01*
X37170684Y-128443054D01*
X37189653Y-128401086D01*
X37255170Y-128415792D01*
G37*
X37255170Y-128415792D02*
X37452171Y-128542902D01*
X37669795Y-128748607D01*
X37845924Y-128969681D01*
X37918437Y-129142894D01*
X37912802Y-129220836D01*
X37856767Y-129455509D01*
X37808561Y-129533930D01*
X37653567Y-129616219D01*
X37550484Y-129601169D01*
X37524531Y-129511678D01*
X37619266Y-129300901D01*
X37682718Y-129064496D01*
X37592902Y-128781953D01*
X37327261Y-128553076D01*
X37303858Y-128540071D01*
X37170684Y-128443054D01*
X37189653Y-128401086D01*
X37255170Y-128415792D01*
X27076296Y-129667275D02*
X26995118Y-129718913D01*
X26995118Y-129718913D02*
X26859142Y-129949007D01*
X26859142Y-129949007D02*
X26888547Y-130241728D01*
X26888547Y-130241728D02*
X27077853Y-130549719D01*
X27077853Y-130549719D02*
X27093186Y-130566583D01*
X27093186Y-130566583D02*
X27380051Y-130785157D01*
X27380051Y-130785157D02*
X27651261Y-130821112D01*
X27651261Y-130821112D02*
X27839717Y-130713499D01*
X27839717Y-130713499D02*
X27950013Y-130486165D01*
X27950013Y-130486165D02*
X27929545Y-130326232D01*
X27929545Y-130326232D02*
X27758437Y-130326232D01*
X27758437Y-130326232D02*
X27709443Y-130620060D01*
X27709443Y-130620060D02*
X27570389Y-130733316D01*
X27570389Y-130733316D02*
X27353172Y-130660579D01*
X27353172Y-130660579D02*
X27233038Y-130565672D01*
X27233038Y-130565672D02*
X27098253Y-130353667D01*
X27098253Y-130353667D02*
X27051143Y-130092711D01*
X27051143Y-130092711D02*
X27094632Y-129863086D01*
X27094632Y-129863086D02*
X27203422Y-129753108D01*
X27203422Y-129753108D02*
X27405599Y-129770332D01*
X27405599Y-129770332D02*
X27600602Y-129927246D01*
X27600602Y-129927246D02*
X27732642Y-130166240D01*
X27732642Y-130166240D02*
X27758437Y-130326232D01*
X27758437Y-130326232D02*
X27929545Y-130326232D01*
X27929545Y-130326232D02*
X27916236Y-130222244D01*
X27916236Y-130222244D02*
X27775181Y-129965066D01*
X27775181Y-129965066D02*
X27563643Y-129757959D01*
X27563643Y-129757959D02*
X27318416Y-129644252D01*
X27318416Y-129644252D02*
X27076296Y-129667275D01*
X27076296Y-129667275D02*
X27076296Y-129667275D01*
G36*
X27839717Y-130713499D02*
G01*
X27651261Y-130821112D01*
X27380051Y-130785157D01*
X27093186Y-130566583D01*
X27077853Y-130549719D01*
X26888547Y-130241728D01*
X26873578Y-130092711D01*
X27051143Y-130092711D01*
X27098253Y-130353667D01*
X27233038Y-130565672D01*
X27353172Y-130660579D01*
X27570389Y-130733316D01*
X27709443Y-130620060D01*
X27758437Y-130326232D01*
X27732642Y-130166240D01*
X27600602Y-129927246D01*
X27405599Y-129770332D01*
X27203422Y-129753108D01*
X27094632Y-129863086D01*
X27051143Y-130092711D01*
X26873578Y-130092711D01*
X26859142Y-129949007D01*
X26995118Y-129718913D01*
X27076296Y-129667275D01*
X27318416Y-129644252D01*
X27563643Y-129757959D01*
X27775181Y-129965066D01*
X27916236Y-130222244D01*
X27929545Y-130326232D01*
X27950013Y-130486165D01*
X27839717Y-130713499D01*
G37*
X27839717Y-130713499D02*
X27651261Y-130821112D01*
X27380051Y-130785157D01*
X27093186Y-130566583D01*
X27077853Y-130549719D01*
X26888547Y-130241728D01*
X26873578Y-130092711D01*
X27051143Y-130092711D01*
X27098253Y-130353667D01*
X27233038Y-130565672D01*
X27353172Y-130660579D01*
X27570389Y-130733316D01*
X27709443Y-130620060D01*
X27758437Y-130326232D01*
X27732642Y-130166240D01*
X27600602Y-129927246D01*
X27405599Y-129770332D01*
X27203422Y-129753108D01*
X27094632Y-129863086D01*
X27051143Y-130092711D01*
X26873578Y-130092711D01*
X26859142Y-129949007D01*
X26995118Y-129718913D01*
X27076296Y-129667275D01*
X27318416Y-129644252D01*
X27563643Y-129757959D01*
X27775181Y-129965066D01*
X27916236Y-130222244D01*
X27929545Y-130326232D01*
X27950013Y-130486165D01*
X27839717Y-130713499D01*
X35505891Y-126779476D02*
X35490559Y-126835678D01*
X35490559Y-126835678D02*
X35531446Y-126988067D01*
X35531446Y-126988067D02*
X35632437Y-127279419D01*
X35632437Y-127279419D02*
X35724193Y-127549722D01*
X35724193Y-127549722D02*
X35778497Y-127729481D01*
X35778497Y-127729481D02*
X35784837Y-127761833D01*
X35784837Y-127761833D02*
X35721282Y-127750026D01*
X35721282Y-127750026D02*
X35632437Y-127685819D01*
X35632437Y-127685819D02*
X35504857Y-127620273D01*
X35504857Y-127620273D02*
X35480037Y-127669803D01*
X35480037Y-127669803D02*
X35559908Y-127798135D01*
X35559908Y-127798135D02*
X35696158Y-127895934D01*
X35696158Y-127895934D02*
X35883041Y-127959279D01*
X35883041Y-127959279D02*
X35994049Y-127879234D01*
X35994049Y-127879234D02*
X35996728Y-127874958D01*
X35996728Y-127874958D02*
X36096582Y-127791302D01*
X36096582Y-127791302D02*
X36207327Y-127864468D01*
X36207327Y-127864468D02*
X36408296Y-127994232D01*
X36408296Y-127994232D02*
X36542533Y-127952729D01*
X36542533Y-127952729D02*
X36570365Y-127757100D01*
X36570365Y-127757100D02*
X36561983Y-127711219D01*
X36561983Y-127711219D02*
X36488062Y-127400343D01*
X36488062Y-127400343D02*
X36431352Y-127186082D01*
X36431352Y-127186082D02*
X36401997Y-127013292D01*
X36401997Y-127013292D02*
X36480593Y-126985823D01*
X36480593Y-126985823D02*
X36555906Y-127008531D01*
X36555906Y-127008531D02*
X36687864Y-127049713D01*
X36687864Y-127049713D02*
X36659498Y-127008262D01*
X36659498Y-127008262D02*
X36552819Y-126924068D01*
X36552819Y-126924068D02*
X36328536Y-126788260D01*
X36328536Y-126788260D02*
X36220722Y-126818689D01*
X36220722Y-126818689D02*
X36228673Y-127015576D01*
X36228673Y-127015576D02*
X36231023Y-127025419D01*
X36231023Y-127025419D02*
X36307356Y-127339077D01*
X36307356Y-127339077D02*
X36354652Y-127533419D01*
X36354652Y-127533419D02*
X36368763Y-127729763D01*
X36368763Y-127729763D02*
X36296783Y-127782062D01*
X36296783Y-127782062D02*
X36168708Y-127713046D01*
X36168708Y-127713046D02*
X36014531Y-127545446D01*
X36014531Y-127545446D02*
X35864247Y-127301995D01*
X35864247Y-127301995D02*
X35776168Y-127095021D01*
X35776168Y-127095021D02*
X35675612Y-126876212D01*
X35675612Y-126876212D02*
X35580255Y-126772685D01*
X35580255Y-126772685D02*
X35571698Y-126771419D01*
X35571698Y-126771419D02*
X35505891Y-126779476D01*
X35505891Y-126779476D02*
X35505891Y-126779476D01*
G36*
X35580255Y-126772685D02*
G01*
X35675612Y-126876212D01*
X35776168Y-127095021D01*
X35864247Y-127301995D01*
X36014531Y-127545446D01*
X36168708Y-127713046D01*
X36296783Y-127782062D01*
X36368763Y-127729763D01*
X36354652Y-127533419D01*
X36307356Y-127339077D01*
X36231023Y-127025419D01*
X36228673Y-127015576D01*
X36220722Y-126818689D01*
X36328536Y-126788260D01*
X36552819Y-126924068D01*
X36659498Y-127008262D01*
X36687864Y-127049713D01*
X36555906Y-127008531D01*
X36480593Y-126985823D01*
X36401997Y-127013292D01*
X36431352Y-127186082D01*
X36488062Y-127400343D01*
X36561983Y-127711219D01*
X36570365Y-127757100D01*
X36542533Y-127952729D01*
X36408296Y-127994232D01*
X36207327Y-127864468D01*
X36096582Y-127791302D01*
X35996728Y-127874958D01*
X35994049Y-127879234D01*
X35883041Y-127959279D01*
X35696158Y-127895934D01*
X35559908Y-127798135D01*
X35480037Y-127669803D01*
X35504857Y-127620273D01*
X35632437Y-127685819D01*
X35721282Y-127750026D01*
X35784837Y-127761833D01*
X35778497Y-127729481D01*
X35724193Y-127549722D01*
X35632437Y-127279419D01*
X35531446Y-126988067D01*
X35490559Y-126835678D01*
X35505891Y-126779476D01*
X35571698Y-126771419D01*
X35580255Y-126772685D01*
G37*
X35580255Y-126772685D02*
X35675612Y-126876212D01*
X35776168Y-127095021D01*
X35864247Y-127301995D01*
X36014531Y-127545446D01*
X36168708Y-127713046D01*
X36296783Y-127782062D01*
X36368763Y-127729763D01*
X36354652Y-127533419D01*
X36307356Y-127339077D01*
X36231023Y-127025419D01*
X36228673Y-127015576D01*
X36220722Y-126818689D01*
X36328536Y-126788260D01*
X36552819Y-126924068D01*
X36659498Y-127008262D01*
X36687864Y-127049713D01*
X36555906Y-127008531D01*
X36480593Y-126985823D01*
X36401997Y-127013292D01*
X36431352Y-127186082D01*
X36488062Y-127400343D01*
X36561983Y-127711219D01*
X36570365Y-127757100D01*
X36542533Y-127952729D01*
X36408296Y-127994232D01*
X36207327Y-127864468D01*
X36096582Y-127791302D01*
X35996728Y-127874958D01*
X35994049Y-127879234D01*
X35883041Y-127959279D01*
X35696158Y-127895934D01*
X35559908Y-127798135D01*
X35480037Y-127669803D01*
X35504857Y-127620273D01*
X35632437Y-127685819D01*
X35721282Y-127750026D01*
X35784837Y-127761833D01*
X35778497Y-127729481D01*
X35724193Y-127549722D01*
X35632437Y-127279419D01*
X35531446Y-126988067D01*
X35490559Y-126835678D01*
X35505891Y-126779476D01*
X35571698Y-126771419D01*
X35580255Y-126772685D01*
X33581585Y-126858185D02*
X33588787Y-127073626D01*
X33588787Y-127073626D02*
X33634493Y-127350454D01*
X33634493Y-127350454D02*
X33711081Y-127621384D01*
X33711081Y-127621384D02*
X33719307Y-127643386D01*
X33719307Y-127643386D02*
X33715169Y-127744704D01*
X33715169Y-127744704D02*
X33586350Y-127729477D01*
X33586350Y-127729477D02*
X33461735Y-127696861D01*
X33461735Y-127696861D02*
X33493646Y-127745727D01*
X33493646Y-127745727D02*
X33594456Y-127829924D01*
X33594456Y-127829924D02*
X33811209Y-127970805D01*
X33811209Y-127970805D02*
X33919203Y-127942144D01*
X33919203Y-127942144D02*
X33928201Y-127737699D01*
X33928201Y-127737699D02*
X33910587Y-127627804D01*
X33910587Y-127627804D02*
X33849537Y-127343082D01*
X33849537Y-127343082D02*
X33791379Y-127132376D01*
X33791379Y-127132376D02*
X33786368Y-127118651D01*
X33786368Y-127118651D02*
X33790506Y-127017333D01*
X33790506Y-127017333D02*
X33919325Y-127032560D01*
X33919325Y-127032560D02*
X34043940Y-127065176D01*
X34043940Y-127065176D02*
X34012029Y-127016310D01*
X34012029Y-127016310D02*
X33911219Y-126932113D01*
X33911219Y-126932113D02*
X33725357Y-126808380D01*
X33725357Y-126808380D02*
X33620512Y-126771419D01*
X33620512Y-126771419D02*
X33581585Y-126858185D01*
X33581585Y-126858185D02*
X33581585Y-126858185D01*
G36*
X33725357Y-126808380D02*
G01*
X33911219Y-126932113D01*
X34012029Y-127016310D01*
X34043940Y-127065176D01*
X33919325Y-127032560D01*
X33790506Y-127017333D01*
X33786368Y-127118651D01*
X33791379Y-127132376D01*
X33849537Y-127343082D01*
X33910587Y-127627804D01*
X33928201Y-127737699D01*
X33919203Y-127942144D01*
X33811209Y-127970805D01*
X33594456Y-127829924D01*
X33493646Y-127745727D01*
X33461735Y-127696861D01*
X33586350Y-127729477D01*
X33715169Y-127744704D01*
X33719307Y-127643386D01*
X33711081Y-127621384D01*
X33634493Y-127350454D01*
X33588787Y-127073626D01*
X33581585Y-126858185D01*
X33620512Y-126771419D01*
X33725357Y-126808380D01*
G37*
X33725357Y-126808380D02*
X33911219Y-126932113D01*
X34012029Y-127016310D01*
X34043940Y-127065176D01*
X33919325Y-127032560D01*
X33790506Y-127017333D01*
X33786368Y-127118651D01*
X33791379Y-127132376D01*
X33849537Y-127343082D01*
X33910587Y-127627804D01*
X33928201Y-127737699D01*
X33919203Y-127942144D01*
X33811209Y-127970805D01*
X33594456Y-127829924D01*
X33493646Y-127745727D01*
X33461735Y-127696861D01*
X33586350Y-127729477D01*
X33715169Y-127744704D01*
X33719307Y-127643386D01*
X33711081Y-127621384D01*
X33634493Y-127350454D01*
X33588787Y-127073626D01*
X33581585Y-126858185D01*
X33620512Y-126771419D01*
X33725357Y-126808380D01*
X32359496Y-126822475D02*
X32278318Y-126874113D01*
X32278318Y-126874113D02*
X32142342Y-127104207D01*
X32142342Y-127104207D02*
X32171747Y-127396928D01*
X32171747Y-127396928D02*
X32361053Y-127704919D01*
X32361053Y-127704919D02*
X32376386Y-127721783D01*
X32376386Y-127721783D02*
X32663251Y-127940357D01*
X32663251Y-127940357D02*
X32934461Y-127976312D01*
X32934461Y-127976312D02*
X33122917Y-127868699D01*
X33122917Y-127868699D02*
X33233213Y-127641365D01*
X33233213Y-127641365D02*
X33212745Y-127481432D01*
X33212745Y-127481432D02*
X33041637Y-127481432D01*
X33041637Y-127481432D02*
X32992643Y-127775260D01*
X32992643Y-127775260D02*
X32853589Y-127888516D01*
X32853589Y-127888516D02*
X32636372Y-127815779D01*
X32636372Y-127815779D02*
X32516238Y-127720872D01*
X32516238Y-127720872D02*
X32381453Y-127508867D01*
X32381453Y-127508867D02*
X32334343Y-127247911D01*
X32334343Y-127247911D02*
X32377832Y-127018286D01*
X32377832Y-127018286D02*
X32486622Y-126908308D01*
X32486622Y-126908308D02*
X32688799Y-126925532D01*
X32688799Y-126925532D02*
X32883802Y-127082446D01*
X32883802Y-127082446D02*
X33015842Y-127321440D01*
X33015842Y-127321440D02*
X33041637Y-127481432D01*
X33041637Y-127481432D02*
X33212745Y-127481432D01*
X33212745Y-127481432D02*
X33199436Y-127377444D01*
X33199436Y-127377444D02*
X33058381Y-127120266D01*
X33058381Y-127120266D02*
X32846843Y-126913159D01*
X32846843Y-126913159D02*
X32601616Y-126799452D01*
X32601616Y-126799452D02*
X32359496Y-126822475D01*
X32359496Y-126822475D02*
X32359496Y-126822475D01*
G36*
X33122917Y-127868699D02*
G01*
X32934461Y-127976312D01*
X32663251Y-127940357D01*
X32376386Y-127721783D01*
X32361053Y-127704919D01*
X32171747Y-127396928D01*
X32156778Y-127247911D01*
X32334343Y-127247911D01*
X32381453Y-127508867D01*
X32516238Y-127720872D01*
X32636372Y-127815779D01*
X32853589Y-127888516D01*
X32992643Y-127775260D01*
X33041637Y-127481432D01*
X33015842Y-127321440D01*
X32883802Y-127082446D01*
X32688799Y-126925532D01*
X32486622Y-126908308D01*
X32377832Y-127018286D01*
X32334343Y-127247911D01*
X32156778Y-127247911D01*
X32142342Y-127104207D01*
X32278318Y-126874113D01*
X32359496Y-126822475D01*
X32601616Y-126799452D01*
X32846843Y-126913159D01*
X33058381Y-127120266D01*
X33199436Y-127377444D01*
X33212745Y-127481432D01*
X33233213Y-127641365D01*
X33122917Y-127868699D01*
G37*
X33122917Y-127868699D02*
X32934461Y-127976312D01*
X32663251Y-127940357D01*
X32376386Y-127721783D01*
X32361053Y-127704919D01*
X32171747Y-127396928D01*
X32156778Y-127247911D01*
X32334343Y-127247911D01*
X32381453Y-127508867D01*
X32516238Y-127720872D01*
X32636372Y-127815779D01*
X32853589Y-127888516D01*
X32992643Y-127775260D01*
X33041637Y-127481432D01*
X33015842Y-127321440D01*
X32883802Y-127082446D01*
X32688799Y-126925532D01*
X32486622Y-126908308D01*
X32377832Y-127018286D01*
X32334343Y-127247911D01*
X32156778Y-127247911D01*
X32142342Y-127104207D01*
X32278318Y-126874113D01*
X32359496Y-126822475D01*
X32601616Y-126799452D01*
X32846843Y-126913159D01*
X33058381Y-127120266D01*
X33199436Y-127377444D01*
X33212745Y-127481432D01*
X33233213Y-127641365D01*
X33122917Y-127868699D01*
X36834105Y-125458893D02*
X36839037Y-125600135D01*
X36839037Y-125600135D02*
X36848981Y-125648390D01*
X36848981Y-125648390D02*
X36886747Y-125860552D01*
X36886747Y-125860552D02*
X36942018Y-126214558D01*
X36942018Y-126214558D02*
X37005675Y-126650801D01*
X37005675Y-126650801D02*
X37039493Y-126893498D01*
X37039493Y-126893498D02*
X37099621Y-127345032D01*
X37099621Y-127345032D02*
X37128592Y-127634059D01*
X37128592Y-127634059D02*
X37123496Y-127799298D01*
X37123496Y-127799298D02*
X37081423Y-127879470D01*
X37081423Y-127879470D02*
X36999462Y-127913293D01*
X36999462Y-127913293D02*
X36962263Y-127921062D01*
X36962263Y-127921062D02*
X36919378Y-127948375D01*
X36919378Y-127948375D02*
X37051233Y-127970198D01*
X37051233Y-127970198D02*
X37175450Y-127976782D01*
X37175450Y-127976782D02*
X37600862Y-127990619D01*
X37600862Y-127990619D02*
X37543156Y-127635019D01*
X37543156Y-127635019D02*
X37515844Y-127405073D01*
X37515844Y-127405073D02*
X37569260Y-127304771D01*
X37569260Y-127304771D02*
X37754231Y-127280519D01*
X37754231Y-127280519D02*
X37879744Y-127280113D01*
X37879744Y-127280113D02*
X38157642Y-127307906D01*
X38157642Y-127307906D02*
X38349359Y-127424181D01*
X38349359Y-127424181D02*
X38518952Y-127640409D01*
X38518952Y-127640409D02*
X38756508Y-127942152D01*
X38756508Y-127942152D02*
X39021406Y-128215527D01*
X39021406Y-128215527D02*
X39060147Y-128249314D01*
X39060147Y-128249314D02*
X39310199Y-128413248D01*
X39310199Y-128413248D02*
X39543602Y-128493109D01*
X39543602Y-128493109D02*
X39705575Y-128477121D01*
X39705575Y-128477121D02*
X39747237Y-128397019D01*
X39747237Y-128397019D02*
X39660940Y-128318374D01*
X39660940Y-128318374D02*
X39513168Y-128295419D01*
X39513168Y-128295419D02*
X39262647Y-128206887D01*
X39262647Y-128206887D02*
X38952426Y-127938707D01*
X38952426Y-127938707D02*
X38578706Y-127486996D01*
X38578706Y-127486996D02*
X38326083Y-127125455D01*
X38326083Y-127125455D02*
X38121637Y-127125455D01*
X38121637Y-127125455D02*
X38032453Y-127160654D01*
X38032453Y-127160654D02*
X37814328Y-127177558D01*
X37814328Y-127177558D02*
X37780252Y-127177819D01*
X37780252Y-127177819D02*
X37587362Y-127169483D01*
X37587362Y-127169483D02*
X37479605Y-127112019D01*
X37479605Y-127112019D02*
X37423338Y-126956737D01*
X37423338Y-126956737D02*
X37384917Y-126654949D01*
X37384917Y-126654949D02*
X37378922Y-126597015D01*
X37378922Y-126597015D02*
X37351390Y-126278599D01*
X37351390Y-126278599D02*
X37342128Y-126055210D01*
X37342128Y-126055210D02*
X37349306Y-125985883D01*
X37349306Y-125985883D02*
X37413542Y-126047130D01*
X37413542Y-126047130D02*
X37550446Y-126228352D01*
X37550446Y-126228352D02*
X37724679Y-126477407D01*
X37724679Y-126477407D02*
X37900902Y-126742152D01*
X37900902Y-126742152D02*
X38043775Y-126970445D01*
X38043775Y-126970445D02*
X38117961Y-127110143D01*
X38117961Y-127110143D02*
X38121637Y-127125455D01*
X38121637Y-127125455D02*
X38326083Y-127125455D01*
X38326083Y-127125455D02*
X38220687Y-126974619D01*
X38220687Y-126974619D02*
X37958938Y-126588652D01*
X37958938Y-126588652D02*
X37691575Y-126209806D01*
X37691575Y-126209806D02*
X37476176Y-125919656D01*
X37476176Y-125919656D02*
X37474931Y-125918057D01*
X37474931Y-125918057D02*
X37166146Y-125521895D01*
X37166146Y-125521895D02*
X37567692Y-125596949D01*
X37567692Y-125596949D02*
X37941504Y-125698396D01*
X37941504Y-125698396D02*
X38147781Y-125846000D01*
X38147781Y-125846000D02*
X38221374Y-126067754D01*
X38221374Y-126067754D02*
X38223237Y-126123459D01*
X38223237Y-126123459D02*
X38259641Y-126308361D01*
X38259641Y-126308361D02*
X38324837Y-126365019D01*
X38324837Y-126365019D02*
X38416276Y-126289597D01*
X38416276Y-126289597D02*
X38413868Y-126109434D01*
X38413868Y-126109434D02*
X38328893Y-125893680D01*
X38328893Y-125893680D02*
X38225822Y-125758003D01*
X38225822Y-125758003D02*
X38042660Y-125613295D01*
X38042660Y-125613295D02*
X37806084Y-125518385D01*
X37806084Y-125518385D02*
X37458234Y-125454866D01*
X37458234Y-125454866D02*
X37178151Y-125424733D01*
X37178151Y-125424733D02*
X36930431Y-125411781D01*
X36930431Y-125411781D02*
X36834105Y-125458893D01*
X36834105Y-125458893D02*
X36834105Y-125458893D01*
G36*
X38952426Y-127938707D02*
G01*
X39262647Y-128206887D01*
X39513168Y-128295419D01*
X39660940Y-128318374D01*
X39747237Y-128397019D01*
X39705575Y-128477121D01*
X39543602Y-128493109D01*
X39310199Y-128413248D01*
X39060147Y-128249314D01*
X39021406Y-128215527D01*
X38756508Y-127942152D01*
X38518952Y-127640409D01*
X38349359Y-127424181D01*
X38157642Y-127307906D01*
X37879744Y-127280113D01*
X37754231Y-127280519D01*
X37569260Y-127304771D01*
X37515844Y-127405073D01*
X37543156Y-127635019D01*
X37600862Y-127990619D01*
X37175450Y-127976782D01*
X37051233Y-127970198D01*
X36919378Y-127948375D01*
X36962263Y-127921062D01*
X36999462Y-127913293D01*
X37081423Y-127879470D01*
X37123496Y-127799298D01*
X37128592Y-127634059D01*
X37099621Y-127345032D01*
X37039493Y-126893498D01*
X37005675Y-126650801D01*
X36942018Y-126214558D01*
X36917139Y-126055210D01*
X37342128Y-126055210D01*
X37351390Y-126278599D01*
X37378922Y-126597015D01*
X37384917Y-126654949D01*
X37423338Y-126956737D01*
X37479605Y-127112019D01*
X37587362Y-127169483D01*
X37780252Y-127177819D01*
X37814328Y-127177558D01*
X38032453Y-127160654D01*
X38121637Y-127125455D01*
X38117961Y-127110143D01*
X38043775Y-126970445D01*
X37900902Y-126742152D01*
X37724679Y-126477407D01*
X37550446Y-126228352D01*
X37413542Y-126047130D01*
X37349306Y-125985883D01*
X37342128Y-126055210D01*
X36917139Y-126055210D01*
X36886747Y-125860552D01*
X36848981Y-125648390D01*
X36839037Y-125600135D01*
X36834105Y-125458893D01*
X36930431Y-125411781D01*
X37178151Y-125424733D01*
X37458234Y-125454866D01*
X37806084Y-125518385D01*
X38042660Y-125613295D01*
X38225822Y-125758003D01*
X38328893Y-125893680D01*
X38413868Y-126109434D01*
X38416276Y-126289597D01*
X38324837Y-126365019D01*
X38259641Y-126308361D01*
X38223237Y-126123459D01*
X38221374Y-126067754D01*
X38147781Y-125846000D01*
X37941504Y-125698396D01*
X37567692Y-125596949D01*
X37166146Y-125521895D01*
X37474931Y-125918057D01*
X37476176Y-125919656D01*
X37691575Y-126209806D01*
X37958938Y-126588652D01*
X38220687Y-126974619D01*
X38326083Y-127125455D01*
X38578706Y-127486996D01*
X38952426Y-127938707D01*
G37*
X38952426Y-127938707D02*
X39262647Y-128206887D01*
X39513168Y-128295419D01*
X39660940Y-128318374D01*
X39747237Y-128397019D01*
X39705575Y-128477121D01*
X39543602Y-128493109D01*
X39310199Y-128413248D01*
X39060147Y-128249314D01*
X39021406Y-128215527D01*
X38756508Y-127942152D01*
X38518952Y-127640409D01*
X38349359Y-127424181D01*
X38157642Y-127307906D01*
X37879744Y-127280113D01*
X37754231Y-127280519D01*
X37569260Y-127304771D01*
X37515844Y-127405073D01*
X37543156Y-127635019D01*
X37600862Y-127990619D01*
X37175450Y-127976782D01*
X37051233Y-127970198D01*
X36919378Y-127948375D01*
X36962263Y-127921062D01*
X36999462Y-127913293D01*
X37081423Y-127879470D01*
X37123496Y-127799298D01*
X37128592Y-127634059D01*
X37099621Y-127345032D01*
X37039493Y-126893498D01*
X37005675Y-126650801D01*
X36942018Y-126214558D01*
X36917139Y-126055210D01*
X37342128Y-126055210D01*
X37351390Y-126278599D01*
X37378922Y-126597015D01*
X37384917Y-126654949D01*
X37423338Y-126956737D01*
X37479605Y-127112019D01*
X37587362Y-127169483D01*
X37780252Y-127177819D01*
X37814328Y-127177558D01*
X38032453Y-127160654D01*
X38121637Y-127125455D01*
X38117961Y-127110143D01*
X38043775Y-126970445D01*
X37900902Y-126742152D01*
X37724679Y-126477407D01*
X37550446Y-126228352D01*
X37413542Y-126047130D01*
X37349306Y-125985883D01*
X37342128Y-126055210D01*
X36917139Y-126055210D01*
X36886747Y-125860552D01*
X36848981Y-125648390D01*
X36839037Y-125600135D01*
X36834105Y-125458893D01*
X36930431Y-125411781D01*
X37178151Y-125424733D01*
X37458234Y-125454866D01*
X37806084Y-125518385D01*
X38042660Y-125613295D01*
X38225822Y-125758003D01*
X38328893Y-125893680D01*
X38413868Y-126109434D01*
X38416276Y-126289597D01*
X38324837Y-126365019D01*
X38259641Y-126308361D01*
X38223237Y-126123459D01*
X38221374Y-126067754D01*
X38147781Y-125846000D01*
X37941504Y-125698396D01*
X37567692Y-125596949D01*
X37166146Y-125521895D01*
X37474931Y-125918057D01*
X37476176Y-125919656D01*
X37691575Y-126209806D01*
X37958938Y-126588652D01*
X38220687Y-126974619D01*
X38326083Y-127125455D01*
X38578706Y-127486996D01*
X38952426Y-127938707D01*
X32505629Y-129620168D02*
X32649501Y-129727940D01*
X32649501Y-129727940D02*
X32828200Y-129817256D01*
X32828200Y-129817256D02*
X32964795Y-129841182D01*
X32964795Y-129841182D02*
X32965437Y-129841004D01*
X32965437Y-129841004D02*
X33036102Y-129899280D01*
X33036102Y-129899280D02*
X33042204Y-129946419D01*
X33042204Y-129946419D02*
X33074480Y-130186646D01*
X33074480Y-130186646D02*
X33152349Y-130461478D01*
X33152349Y-130461478D02*
X33250041Y-130699290D01*
X33250041Y-130699290D02*
X33341784Y-130828461D01*
X33341784Y-130828461D02*
X33362083Y-130835419D01*
X33362083Y-130835419D02*
X33427437Y-130761910D01*
X33427437Y-130761910D02*
X33414065Y-130690233D01*
X33414065Y-130690233D02*
X33358903Y-130497228D01*
X33358903Y-130497228D02*
X33296306Y-130213247D01*
X33296306Y-130213247D02*
X33287532Y-130167546D01*
X33287532Y-130167546D02*
X33254757Y-129926477D01*
X33254757Y-129926477D02*
X33286866Y-129843777D01*
X33286866Y-129843777D02*
X33357775Y-129863066D01*
X33357775Y-129863066D02*
X33398783Y-129866625D01*
X33398783Y-129866625D02*
X33301619Y-129776153D01*
X33301619Y-129776153D02*
X33076182Y-129633662D01*
X33076182Y-129633662D02*
X32957161Y-129654313D01*
X32957161Y-129654313D02*
X32940037Y-129733565D01*
X32940037Y-129733565D02*
X32879181Y-129763328D01*
X32879181Y-129763328D02*
X32736215Y-129666455D01*
X32736215Y-129666455D02*
X32568318Y-129550377D01*
X32568318Y-129550377D02*
X32473513Y-129540876D01*
X32473513Y-129540876D02*
X32505629Y-129620168D01*
X32505629Y-129620168D02*
X32505629Y-129620168D01*
G36*
X32568318Y-129550377D02*
G01*
X32736215Y-129666455D01*
X32879181Y-129763328D01*
X32940037Y-129733565D01*
X32957161Y-129654313D01*
X33076182Y-129633662D01*
X33301619Y-129776153D01*
X33398783Y-129866625D01*
X33357775Y-129863066D01*
X33286866Y-129843777D01*
X33254757Y-129926477D01*
X33287532Y-130167546D01*
X33296306Y-130213247D01*
X33358903Y-130497228D01*
X33414065Y-130690233D01*
X33427437Y-130761910D01*
X33362083Y-130835419D01*
X33341784Y-130828461D01*
X33250041Y-130699290D01*
X33152349Y-130461478D01*
X33074480Y-130186646D01*
X33042204Y-129946419D01*
X33036102Y-129899280D01*
X32965437Y-129841004D01*
X32964795Y-129841182D01*
X32828200Y-129817256D01*
X32649501Y-129727940D01*
X32505629Y-129620168D01*
X32473513Y-129540876D01*
X32568318Y-129550377D01*
G37*
X32568318Y-129550377D02*
X32736215Y-129666455D01*
X32879181Y-129763328D01*
X32940037Y-129733565D01*
X32957161Y-129654313D01*
X33076182Y-129633662D01*
X33301619Y-129776153D01*
X33398783Y-129866625D01*
X33357775Y-129863066D01*
X33286866Y-129843777D01*
X33254757Y-129926477D01*
X33287532Y-130167546D01*
X33296306Y-130213247D01*
X33358903Y-130497228D01*
X33414065Y-130690233D01*
X33427437Y-130761910D01*
X33362083Y-130835419D01*
X33341784Y-130828461D01*
X33250041Y-130699290D01*
X33152349Y-130461478D01*
X33074480Y-130186646D01*
X33042204Y-129946419D01*
X33036102Y-129899280D01*
X32965437Y-129841004D01*
X32964795Y-129841182D01*
X32828200Y-129817256D01*
X32649501Y-129727940D01*
X32505629Y-129620168D01*
X32473513Y-129540876D01*
X32568318Y-129550377D01*
D12*
%TO.C,J17*%
X49170000Y-100250000D02*
X51830000Y-100250000D01*
X49170000Y-114280000D02*
X49170000Y-115610000D01*
X49170000Y-115610000D02*
X50500000Y-115610000D01*
X49170000Y-113010000D02*
X51830000Y-113010000D01*
X49170000Y-113010000D02*
X49170000Y-100250000D01*
X51830000Y-113010000D02*
X51830000Y-100250000D01*
%TO.C,J18*%
X63380000Y-111810000D02*
X63380000Y-113140000D01*
X66040000Y-110540000D02*
X66040000Y-100320000D01*
X63380000Y-110540000D02*
X66040000Y-110540000D01*
X63380000Y-113140000D02*
X64710000Y-113140000D01*
X63380000Y-100320000D02*
X66040000Y-100320000D01*
X63380000Y-110540000D02*
X63380000Y-100320000D01*
%TO.C,J10*%
X27700000Y-34200000D02*
X27700000Y-44200000D01*
X101700000Y-60570000D02*
X24520000Y-60570000D01*
X98700000Y-21700000D02*
X98700000Y-56700000D01*
X24520000Y-60570000D02*
X24520000Y-17850000D01*
X83890000Y-58170000D02*
X33430000Y-58170000D01*
X31030000Y-60570000D02*
X31030000Y-17850000D01*
X83890000Y-20250000D02*
X83890000Y-58170000D01*
X83890000Y-58170000D02*
X33430000Y-20250000D01*
X25200000Y-44200000D02*
X25200000Y-34200000D01*
X101700000Y-17850000D02*
X101700000Y-60570000D01*
X27700000Y-36700000D02*
X25200000Y-36700000D01*
X33430000Y-58170000D02*
X33430000Y-20250000D01*
X100700000Y-23700000D02*
X98700000Y-23700000D01*
X91290000Y-17850000D02*
X91290000Y-60570000D01*
X25200000Y-34200000D02*
X27700000Y-34200000D01*
X83890000Y-20250000D02*
X33430000Y-58170000D01*
X27700000Y-44200000D02*
X25200000Y-44200000D01*
X100700000Y-21700000D02*
X98700000Y-21700000D01*
X100700000Y-21700000D02*
X100700000Y-23700000D01*
X98700000Y-56700000D02*
X100700000Y-56700000D01*
X33430000Y-20250000D02*
X83890000Y-20250000D01*
X24520000Y-17850000D02*
X101700000Y-17850000D01*
X100700000Y-56700000D02*
X100700000Y-21700000D01*
X29260000Y-20850000D02*
G75*
G03*
X29260000Y-20850000I-1740000J0D01*
G01*
X96520000Y-57570000D02*
G75*
G03*
X96520000Y-57570000I-1740000J0D01*
G01*
X96520000Y-20850000D02*
G75*
G03*
X96520000Y-20850000I-1740000J0D01*
G01*
X29260000Y-57570000D02*
G75*
G03*
X29260000Y-57570000I-1740000J0D01*
G01*
%TO.C,J19*%
X72680000Y-167340000D02*
X72680000Y-168670000D01*
X72680000Y-153310000D02*
X75340000Y-153310000D01*
X72680000Y-168670000D02*
X74010000Y-168670000D01*
X72680000Y-166070000D02*
X72680000Y-153310000D01*
X72680000Y-166070000D02*
X75340000Y-166070000D01*
X75340000Y-166070000D02*
X75340000Y-153310000D01*
%TO.C,J20*%
X58460000Y-166155000D02*
X59790000Y-166155000D01*
X58460000Y-153335000D02*
X61120000Y-153335000D01*
X61120000Y-163555000D02*
X61120000Y-153335000D01*
X58460000Y-164825000D02*
X58460000Y-166155000D01*
X58460000Y-163555000D02*
X58460000Y-153335000D01*
X58460000Y-163555000D02*
X61120000Y-163555000D01*
%TD*%
M02*
