%TF.GenerationSoftware,KiCad,Pcbnew,(5.99.0-9544-g366189b864)*%
%TF.CreationDate,2021-03-13T12:07:28+00:00*%
%TF.ProjectId,europi_main_v2,6575726f-7069-45f6-9d61-696e5f76322e,2.0*%
%TF.SameCoordinates,Original*%
%TF.FileFunction,Soldermask,Top*%
%TF.FilePolarity,Negative*%
%FSLAX46Y46*%
G04 Gerber Fmt 4.6, Leading zero omitted, Abs format (unit mm)*
G04 Created by KiCad (PCBNEW (5.99.0-9544-g366189b864)) date 2021-03-13 12:07:28*
%MOMM*%
%LPD*%
G01*
G04 APERTURE LIST*
G04 Aperture macros list*
%AMRoundRect*
0 Rectangle with rounded corners*
0 $1 Rounding radius*
0 $2 $3 $4 $5 $6 $7 $8 $9 X,Y pos of 4 corners*
0 Add a 4 corners polygon primitive as box body*
4,1,4,$2,$3,$4,$5,$6,$7,$8,$9,$2,$3,0*
0 Add four circle primitives for the rounded corners*
1,1,$1+$1,$2,$3*
1,1,$1+$1,$4,$5*
1,1,$1+$1,$6,$7*
1,1,$1+$1,$8,$9*
0 Add four rect primitives between the rounded corners*
20,1,$1+$1,$2,$3,$4,$5,0*
20,1,$1+$1,$4,$5,$6,$7,0*
20,1,$1+$1,$6,$7,$8,$9,0*
20,1,$1+$1,$8,$9,$2,$3,0*%
G04 Aperture macros list end*
%ADD10RoundRect,0.200000X-0.800000X-0.800000X0.800000X-0.800000X0.800000X0.800000X-0.800000X0.800000X0*%
%ADD11C,2.000000*%
%ADD12RoundRect,0.200000X0.800000X-0.800000X0.800000X0.800000X-0.800000X0.800000X-0.800000X-0.800000X0*%
%ADD13RoundRect,0.336957X0.563043X-0.438043X0.563043X0.438043X-0.563043X0.438043X-0.563043X-0.438043X0*%
%ADD14RoundRect,0.200000X1.100000X-1.100000X1.100000X1.100000X-1.100000X1.100000X-1.100000X-1.100000X0*%
%ADD15O,2.600000X2.600000*%
%ADD16RoundRect,0.200000X1.100000X1.100000X-1.100000X1.100000X-1.100000X-1.100000X1.100000X-1.100000X0*%
%ADD17RoundRect,0.200000X0.900000X-0.900000X0.900000X0.900000X-0.900000X0.900000X-0.900000X-0.900000X0*%
%ADD18C,2.200000*%
%ADD19RoundRect,0.200000X-0.450000X-0.600000X0.450000X-0.600000X0.450000X0.600000X-0.450000X0.600000X0*%
%ADD20RoundRect,0.200000X-0.600000X0.450000X-0.600000X-0.450000X0.600000X-0.450000X0.600000X0.450000X0*%
%ADD21RoundRect,0.200000X0.450000X0.600000X-0.450000X0.600000X-0.450000X-0.600000X0.450000X-0.600000X0*%
%ADD22RoundRect,0.200000X0.863600X0.863600X-0.863600X0.863600X-0.863600X-0.863600X0.863600X-0.863600X0*%
%ADD23O,2.127200X2.127200*%
%ADD24C,3.400000*%
%ADD25C,3.000000*%
%ADD26C,6.000000*%
%ADD27RoundRect,0.200000X-0.850000X0.850000X-0.850000X-0.850000X0.850000X-0.850000X0.850000X0.850000X0*%
%ADD28O,2.100000X2.100000*%
%ADD29RoundRect,0.200000X-0.400000X0.450000X-0.400000X-0.450000X0.400000X-0.450000X0.400000X0.450000X0*%
%ADD30RoundRect,0.200000X0.400000X-0.450000X0.400000X0.450000X-0.400000X0.450000X-0.400000X-0.450000X0*%
%ADD31RoundRect,0.336957X0.438043X0.563043X-0.438043X0.563043X-0.438043X-0.563043X0.438043X-0.563043X0*%
%ADD32RoundRect,0.336957X-0.438043X-0.563043X0.438043X-0.563043X0.438043X0.563043X-0.438043X0.563043X0*%
%ADD33RoundRect,0.336957X-0.563043X0.438043X-0.563043X-0.438043X0.563043X-0.438043X0.563043X0.438043X0*%
%ADD34C,1.924000*%
%ADD35RoundRect,0.200000X1.500000X2.000000X-1.500000X2.000000X-1.500000X-2.000000X1.500000X-2.000000X0*%
%ADD36C,2.400000*%
%ADD37RoundRect,0.250000X0.975000X0.250000X-0.975000X0.250000X-0.975000X-0.250000X0.975000X-0.250000X0*%
%ADD38RoundRect,0.200000X0.600000X-0.450000X0.600000X0.450000X-0.600000X0.450000X-0.600000X-0.450000X0*%
%ADD39RoundRect,0.250000X0.925000X0.250000X-0.925000X0.250000X-0.925000X-0.250000X0.925000X-0.250000X0*%
%ADD40RoundRect,0.200000X0.952500X1.000000X-0.952500X1.000000X-0.952500X-1.000000X0.952500X-1.000000X0*%
%ADD41O,2.305000X2.400000*%
%ADD42RoundRect,0.200000X-0.850000X-0.850000X0.850000X-0.850000X0.850000X0.850000X-0.850000X0.850000X0*%
%ADD43RoundRect,0.200000X0.737500X0.200000X-0.737500X0.200000X-0.737500X-0.200000X0.737500X-0.200000X0*%
%ADD44RoundRect,0.200000X0.850000X-0.850000X0.850000X0.850000X-0.850000X0.850000X-0.850000X-0.850000X0*%
%ADD45C,3.600000*%
%ADD46RoundRect,0.200000X0.762000X0.762000X-0.762000X0.762000X-0.762000X-0.762000X0.762000X-0.762000X0*%
G04 APERTURE END LIST*
D10*
%TO.C,C1*%
X62254888Y-33230000D03*
D11*
X64254888Y-33230000D03*
%TD*%
D10*
%TO.C,C2*%
X71700000Y-33230000D03*
D11*
X73700000Y-33230000D03*
%TD*%
D12*
%TO.C,C5*%
X83160000Y-115755113D03*
D11*
X83160000Y-113755113D03*
%TD*%
D13*
%TO.C,C11*%
X27150000Y-104125000D03*
X27150000Y-102075000D03*
%TD*%
D14*
%TO.C,D1*%
X34320000Y-32460000D03*
D15*
X34320000Y-22300000D03*
%TD*%
D16*
%TO.C,D2*%
X88580000Y-32940000D03*
D15*
X78420000Y-32940000D03*
%TD*%
D17*
%TO.C,D3*%
X55590000Y-156680000D03*
D18*
X55590000Y-154140000D03*
%TD*%
D17*
%TO.C,D4*%
X55590000Y-171680000D03*
D18*
X55590000Y-169140000D03*
%TD*%
D17*
%TO.C,D5*%
X100000000Y-156750000D03*
D18*
X100000000Y-154210000D03*
%TD*%
D17*
%TO.C,D6*%
X100000000Y-171750000D03*
D18*
X100000000Y-169210000D03*
%TD*%
D19*
%TO.C,D7*%
X90840000Y-136080000D03*
X94140000Y-136080000D03*
%TD*%
%TO.C,D8*%
X90850000Y-132750000D03*
X94150000Y-132750000D03*
%TD*%
%TO.C,D9*%
X90850000Y-129750000D03*
X94150000Y-129750000D03*
%TD*%
%TO.C,D10*%
X96370000Y-129780000D03*
X99670000Y-129780000D03*
%TD*%
%TO.C,D11*%
X41180000Y-143620000D03*
X44480000Y-143620000D03*
%TD*%
%TO.C,D12*%
X53700000Y-175780000D03*
X57000000Y-175780000D03*
%TD*%
D20*
%TO.C,D13*%
X100010000Y-159730000D03*
X100010000Y-163030000D03*
%TD*%
D21*
%TO.C,D14*%
X95700000Y-175820000D03*
X92400000Y-175820000D03*
%TD*%
D22*
%TO.C,Eurorack1*%
X73680000Y-24080000D03*
D23*
X73680000Y-26620000D03*
X71140000Y-24080000D03*
X71140000Y-26620000D03*
X68600000Y-24080000D03*
X68600000Y-26620000D03*
X66060000Y-24080000D03*
X66060000Y-26620000D03*
X63520000Y-24080000D03*
X63520000Y-26620000D03*
%TD*%
D24*
%TO.C,J1*%
X27850000Y-152500000D03*
D25*
X27850000Y-146020000D03*
X27850000Y-149120000D03*
X27850000Y-157420000D03*
%TD*%
D24*
%TO.C,J2*%
X38240000Y-152500000D03*
D25*
X38240000Y-146020000D03*
X38240000Y-149120000D03*
X38240000Y-157420000D03*
%TD*%
D24*
%TO.C,J3*%
X48580000Y-152500000D03*
D25*
X48580000Y-146020000D03*
X48580000Y-149120000D03*
X48580000Y-157420000D03*
%TD*%
D24*
%TO.C,J4*%
X48550000Y-167520000D03*
D25*
X48550000Y-161040000D03*
X48550000Y-164140000D03*
X48550000Y-172440000D03*
%TD*%
D24*
%TO.C,J5*%
X82670000Y-152530000D03*
D25*
X82670000Y-146050000D03*
X82670000Y-149150000D03*
X82670000Y-157450000D03*
%TD*%
D24*
%TO.C,J6*%
X82753200Y-167505900D03*
D25*
X82753200Y-161025900D03*
X82753200Y-164125900D03*
X82753200Y-172425900D03*
%TD*%
D24*
%TO.C,J7*%
X93000000Y-152530000D03*
D25*
X93000000Y-146050000D03*
X93000000Y-149150000D03*
X93000000Y-157450000D03*
%TD*%
D24*
%TO.C,J8*%
X93000000Y-167500000D03*
D25*
X93000000Y-161020000D03*
X93000000Y-164120000D03*
X93000000Y-172420000D03*
%TD*%
D26*
%TO.C,Pi1*%
X34355000Y-40515000D03*
X92355000Y-40515000D03*
X34355000Y-63515000D03*
X92355000Y-63515000D03*
D27*
X87485000Y-62245000D03*
D28*
X87485000Y-64785000D03*
X84945000Y-62245000D03*
X84945000Y-64785000D03*
X82405000Y-62245000D03*
X82405000Y-64785000D03*
X79865000Y-62245000D03*
X79865000Y-64785000D03*
X77325000Y-62245000D03*
X77325000Y-64785000D03*
X74785000Y-62245000D03*
X74785000Y-64785000D03*
X72245000Y-62245000D03*
X72245000Y-64785000D03*
X69705000Y-62245000D03*
X69705000Y-64785000D03*
X67165000Y-62245000D03*
X67165000Y-64785000D03*
X64625000Y-62245000D03*
X64625000Y-64785000D03*
X62085000Y-62245000D03*
X62085000Y-64785000D03*
X59545000Y-62245000D03*
X59545000Y-64785000D03*
X57005000Y-62245000D03*
X57005000Y-64785000D03*
X54465000Y-62245000D03*
X54465000Y-64785000D03*
X51925000Y-62245000D03*
X51925000Y-64785000D03*
X49385000Y-62245000D03*
X49385000Y-64785000D03*
X46845000Y-62245000D03*
X46845000Y-64785000D03*
X44305000Y-62245000D03*
X44305000Y-64785000D03*
X41765000Y-62245000D03*
X41765000Y-64785000D03*
X39225000Y-62245000D03*
X39225000Y-64785000D03*
%TD*%
D29*
%TO.C,Q1*%
X87460000Y-51480000D03*
X85560000Y-51480000D03*
X86510000Y-53480000D03*
%TD*%
D30*
%TO.C,Q2*%
X79120000Y-53370000D03*
X81020000Y-53370000D03*
X80070000Y-51370000D03*
%TD*%
D31*
%TO.C,R1*%
X87535000Y-47220000D03*
X85485000Y-47220000D03*
%TD*%
D32*
%TO.C,R2*%
X79155000Y-43730000D03*
X81205000Y-43730000D03*
%TD*%
D31*
%TO.C,R3*%
X87685000Y-43620000D03*
X85635000Y-43620000D03*
%TD*%
D32*
%TO.C,R4*%
X79045000Y-47290000D03*
X81095000Y-47290000D03*
%TD*%
D33*
%TO.C,R5*%
X46490000Y-98385000D03*
X46490000Y-100435000D03*
%TD*%
D13*
%TO.C,R6*%
X46460000Y-95925000D03*
X46460000Y-93875000D03*
%TD*%
D33*
%TO.C,R8*%
X43910000Y-98375000D03*
X43910000Y-100425000D03*
%TD*%
D13*
%TO.C,R12*%
X43950000Y-95905000D03*
X43950000Y-93855000D03*
%TD*%
D33*
%TO.C,R17*%
X55510000Y-159315000D03*
X55510000Y-161365000D03*
%TD*%
D13*
%TO.C,R18*%
X55570000Y-166175000D03*
X55570000Y-164125000D03*
%TD*%
%TO.C,R19*%
X100030000Y-150825000D03*
X100030000Y-148775000D03*
%TD*%
%TO.C,R20*%
X99940000Y-166905000D03*
X99940000Y-164855000D03*
%TD*%
D32*
%TO.C,R21*%
X51565000Y-143620000D03*
X53615000Y-143620000D03*
%TD*%
%TO.C,R22*%
X74035000Y-175870000D03*
X76085000Y-175870000D03*
%TD*%
D31*
%TO.C,R23*%
X89070000Y-160740000D03*
X87020000Y-160740000D03*
%TD*%
%TO.C,R24*%
X88225000Y-175820000D03*
X86175000Y-175820000D03*
%TD*%
%TO.C,R25*%
X82025000Y-136000000D03*
X79975000Y-136000000D03*
%TD*%
D32*
%TO.C,R26*%
X96125000Y-144650000D03*
X98175000Y-144650000D03*
%TD*%
%TO.C,R27*%
X32465000Y-175850000D03*
X34515000Y-175850000D03*
%TD*%
%TO.C,R28*%
X44460000Y-175780000D03*
X46510000Y-175780000D03*
%TD*%
%TO.C,R29*%
X87155000Y-144540000D03*
X89205000Y-144540000D03*
%TD*%
D33*
%TO.C,R30*%
X66510000Y-154415000D03*
X66510000Y-156465000D03*
%TD*%
D34*
%TO.C,SW1*%
X68400000Y-163580000D03*
X65860000Y-163580000D03*
X63320000Y-163580000D03*
%TD*%
D35*
%TO.C,SW3*%
X71485000Y-144425000D03*
X60285000Y-144425000D03*
D34*
X68385000Y-136925000D03*
X65885000Y-136925000D03*
X63385000Y-136925000D03*
X68385000Y-151425000D03*
X63385000Y-151425000D03*
%TD*%
D36*
%TO.C,SW4*%
X51080000Y-130550000D03*
X44580000Y-130550000D03*
X44580000Y-126050000D03*
X51080000Y-126050000D03*
%TD*%
%TO.C,SW5*%
X63080000Y-130550000D03*
X56580000Y-130550000D03*
X56580000Y-126050000D03*
X63080000Y-126050000D03*
%TD*%
%TO.C,SW6*%
X75080000Y-130550000D03*
X68580000Y-130550000D03*
X68580000Y-126050000D03*
X75080000Y-126050000D03*
%TD*%
%TO.C,SW7*%
X87080000Y-130550000D03*
X80580000Y-130550000D03*
X87080000Y-126050000D03*
X80580000Y-126050000D03*
%TD*%
D37*
%TO.C,PCF8574A1*%
X39260000Y-102055000D03*
X39260000Y-100785000D03*
X39260000Y-99515000D03*
X39260000Y-98245000D03*
X39260000Y-96975000D03*
X39260000Y-95705000D03*
X39260000Y-94435000D03*
X39260000Y-93165000D03*
X29960000Y-93165000D03*
X29960000Y-94435000D03*
X29960000Y-95705000D03*
X29960000Y-96975000D03*
X29960000Y-98245000D03*
X29960000Y-99515000D03*
X29960000Y-100785000D03*
X29960000Y-102055000D03*
%TD*%
D13*
%TO.C,C8*%
X90915000Y-95285000D03*
X90915000Y-93235000D03*
%TD*%
D33*
%TO.C,R32*%
X98105000Y-94425000D03*
X98105000Y-96475000D03*
%TD*%
D13*
%TO.C,R40*%
X70040000Y-156505000D03*
X70040000Y-154455000D03*
%TD*%
D24*
%TO.C,J16*%
X65850000Y-172000000D03*
D25*
X72330000Y-172000000D03*
X69230000Y-172000000D03*
X60930000Y-172000000D03*
%TD*%
D21*
%TO.C,D15*%
X79370000Y-144870000D03*
X76070000Y-144870000D03*
%TD*%
D32*
%TO.C,R37*%
X81200000Y-106320000D03*
X83250000Y-106320000D03*
%TD*%
D24*
%TO.C,J14*%
X38230000Y-167500000D03*
D25*
X38230000Y-161020000D03*
X38230000Y-164120000D03*
X38230000Y-172420000D03*
%TD*%
D33*
%TO.C,R14*%
X70395000Y-99990000D03*
X70395000Y-102040000D03*
%TD*%
D13*
%TO.C,C10*%
X78305000Y-103685000D03*
X78305000Y-101635000D03*
%TD*%
D38*
%TO.C,D16*%
X55390000Y-149480000D03*
X55390000Y-146180000D03*
%TD*%
D13*
%TO.C,R41*%
X75600000Y-150650000D03*
X75600000Y-148600000D03*
%TD*%
D39*
%TO.C,OPA4130*%
X87010000Y-102300000D03*
X87010000Y-101030000D03*
X87010000Y-99760000D03*
X87010000Y-98490000D03*
X87010000Y-97220000D03*
X87010000Y-95950000D03*
X87010000Y-94680000D03*
X82060000Y-94680000D03*
X82060000Y-95950000D03*
X82060000Y-97220000D03*
X82060000Y-98490000D03*
X82060000Y-99760000D03*
X82060000Y-101030000D03*
X82060000Y-102300000D03*
%TD*%
D32*
%TO.C,R31*%
X86790000Y-106560000D03*
X88840000Y-106560000D03*
%TD*%
%TO.C,R34*%
X76750000Y-106370000D03*
X78800000Y-106370000D03*
%TD*%
D13*
%TO.C,C12*%
X90915000Y-99535000D03*
X90915000Y-97485000D03*
%TD*%
%TO.C,C13*%
X78305000Y-99505000D03*
X78305000Y-97455000D03*
%TD*%
D34*
%TO.C,C4*%
X51800000Y-94940000D03*
X56880000Y-94940000D03*
%TD*%
%TO.C,C7*%
X88730000Y-117560000D03*
X88730000Y-112480000D03*
%TD*%
D33*
%TO.C,R33*%
X73605000Y-95050000D03*
X73605000Y-97100000D03*
%TD*%
D13*
%TO.C,R9*%
X95225000Y-96445000D03*
X95225000Y-94395000D03*
%TD*%
D33*
%TO.C,R10*%
X70395000Y-95035000D03*
X70395000Y-97085000D03*
%TD*%
D32*
%TO.C,R11*%
X76700000Y-109220000D03*
X78750000Y-109220000D03*
%TD*%
D33*
%TO.C,C6*%
X90915000Y-101785000D03*
X90915000Y-103835000D03*
%TD*%
%TO.C,R36*%
X73565000Y-99850000D03*
X73565000Y-101900000D03*
%TD*%
D34*
%TO.C,C3*%
X67280000Y-94870000D03*
X62200000Y-94870000D03*
%TD*%
D40*
%TO.C,LM7805*%
X64795400Y-86710400D03*
D41*
X62255400Y-86710400D03*
X59715400Y-86710400D03*
%TD*%
D24*
%TO.C,J13*%
X27890000Y-167500000D03*
D25*
X27890000Y-161020000D03*
X27890000Y-164120000D03*
X27890000Y-172420000D03*
%TD*%
D32*
%TO.C,R7*%
X86800000Y-109280000D03*
X88850000Y-109280000D03*
%TD*%
D13*
%TO.C,R35*%
X98175000Y-101140000D03*
X98175000Y-99090000D03*
%TD*%
D31*
%TO.C,R38*%
X93200000Y-106550000D03*
X91150000Y-106550000D03*
%TD*%
D32*
%TO.C,R39*%
X26955000Y-175850000D03*
X29005000Y-175850000D03*
%TD*%
D42*
%TO.C,J11*%
X93600000Y-71180000D03*
D28*
X96140000Y-71180000D03*
X93600000Y-73720000D03*
X96140000Y-73720000D03*
X93600000Y-76260000D03*
X96140000Y-76260000D03*
X93600000Y-78800000D03*
X96140000Y-78800000D03*
%TD*%
D13*
%TO.C,R42*%
X63440000Y-156425000D03*
X63440000Y-154375000D03*
%TD*%
%TO.C,C9*%
X78275000Y-95345000D03*
X78275000Y-93295000D03*
%TD*%
D31*
%TO.C,R16*%
X93280000Y-109280000D03*
X91230000Y-109280000D03*
%TD*%
D43*
%TO.C,DAC8574*%
X76692500Y-117055000D03*
X76692500Y-116405000D03*
X76692500Y-115755000D03*
X76692500Y-115105000D03*
X76692500Y-114455000D03*
X76692500Y-113805000D03*
X76692500Y-113155000D03*
X76692500Y-112505000D03*
X70967500Y-112505000D03*
X70967500Y-113155000D03*
X70967500Y-113805000D03*
X70967500Y-114455000D03*
X70967500Y-115105000D03*
X70967500Y-115755000D03*
X70967500Y-116405000D03*
X70967500Y-117055000D03*
%TD*%
D42*
%TO.C,J9*%
X29085800Y-71295400D03*
D28*
X31625800Y-71295400D03*
X29085800Y-73835400D03*
X31625800Y-73835400D03*
X29085800Y-76375400D03*
X31625800Y-76375400D03*
X29085800Y-78915400D03*
X31625800Y-78915400D03*
%TD*%
D32*
%TO.C,R15*%
X81200000Y-109270000D03*
X83250000Y-109270000D03*
%TD*%
D33*
%TO.C,R13*%
X95195000Y-99055000D03*
X95195000Y-101105000D03*
%TD*%
D44*
%TO.C,P3*%
X46000000Y-87000000D03*
D28*
X43460000Y-87000000D03*
X40920000Y-87000000D03*
X38380000Y-87000000D03*
X35840000Y-87000000D03*
X33300000Y-87000000D03*
X30760000Y-87000000D03*
X28220000Y-87000000D03*
%TD*%
D44*
%TO.C,P4*%
X95250000Y-87000000D03*
D28*
X92710000Y-87000000D03*
X90170000Y-87000000D03*
X87630000Y-87000000D03*
X85090000Y-87000000D03*
X82550000Y-87000000D03*
X80010000Y-87000000D03*
X77470000Y-87000000D03*
%TD*%
D27*
%TO.C,P6*%
X78500000Y-140000000D03*
D28*
X81040000Y-140000000D03*
X83580000Y-140000000D03*
X86120000Y-140000000D03*
X88660000Y-140000000D03*
X91200000Y-140000000D03*
X93740000Y-140000000D03*
X96280000Y-140000000D03*
%TD*%
D27*
%TO.C,P7*%
X29250000Y-140000000D03*
D28*
X31790000Y-140000000D03*
X34330000Y-140000000D03*
X36870000Y-140000000D03*
X39410000Y-140000000D03*
X41950000Y-140000000D03*
X44490000Y-140000000D03*
X47030000Y-140000000D03*
%TD*%
D42*
%TO.C,J17*%
X50500000Y-114280000D03*
D28*
X50500000Y-111740000D03*
X50500000Y-109200000D03*
X50500000Y-106660000D03*
X50500000Y-104120000D03*
X50500000Y-101580000D03*
%TD*%
D42*
%TO.C,J18*%
X64710000Y-111810000D03*
D28*
X64710000Y-109270000D03*
X64710000Y-106730000D03*
X64710000Y-104190000D03*
X64710000Y-101650000D03*
%TD*%
D45*
%TO.C,J10*%
X94780000Y-57570000D03*
X27520000Y-57570000D03*
X94780000Y-20850000D03*
X27520000Y-20850000D03*
D46*
X99700000Y-22700000D03*
D34*
X99700000Y-25240000D03*
X99700000Y-27780000D03*
X99700000Y-30320000D03*
X99700000Y-32860000D03*
X99700000Y-35400000D03*
X99700000Y-37940000D03*
X99700000Y-40480000D03*
X99700000Y-43020000D03*
X99700000Y-45560000D03*
X99700000Y-48100000D03*
X99700000Y-50640000D03*
X99700000Y-53180000D03*
X99700000Y-55720000D03*
D46*
X26520000Y-35400000D03*
D34*
X26520000Y-37940000D03*
X26520000Y-40480000D03*
X26520000Y-43020000D03*
%TD*%
D42*
%TO.C,J19*%
X74010000Y-167340000D03*
D28*
X74010000Y-164800000D03*
X74010000Y-162260000D03*
X74010000Y-159720000D03*
X74010000Y-157180000D03*
X74010000Y-154640000D03*
%TD*%
D42*
%TO.C,J20*%
X59790000Y-164825000D03*
D28*
X59790000Y-162285000D03*
X59790000Y-159745000D03*
X59790000Y-157205000D03*
X59790000Y-154665000D03*
%TD*%
M02*
