M48
; DRILL file {KiCad (5.99.0-9544-g366189b864)} date 03/13/21 17:32:24
; FORMAT={-:-/ absolute / inch / decimal}
; #@! TF.CreationDate,2021-03-13T17:32:24+00:00
; #@! TF.GenerationSoftware,Kicad,Pcbnew,(5.99.0-9544-g366189b864)
; #@! TF.FileFunction,NonPlated,1,2,NPTH
FMAT,2
INCH
T1C0.1063
T2C0.1181
T3C0.1260
T4C0.1378
T5C0.2362
T6C0.2559
T7C0.2953
%
G90
G05
T1
X1.8882Y-1.7969
X1.8882Y-3.2417
X4.5354Y-1.7969
X4.5354Y-3.2417
T2
X2.9059Y-5.0079
X2.9059Y-5.5972
X4.6539Y-5.0079
X4.6539Y-5.5972
T3
X1.8701Y-1.3583
X1.8701Y-6.1811
X4.4685Y-1.3583
X4.4685Y-6.1811
T4
X2.5988Y-3.9394
X3.072Y-3.9394
X3.5441Y-3.9394
X4.0173Y-3.9394
T5
X1.8138Y-4.8929
X1.8138Y-5.4839
X2.222Y-4.8929
X2.222Y-5.4839
X2.628Y-4.8929
X2.628Y-5.4839
X3.3091Y-5.6606
X3.9717Y-4.8929
X3.9717Y-5.4839
X4.378Y-4.8929
X4.378Y-5.4839
T6
X3.3091Y-5.3295
T7
X3.3091Y-4.574
T0
M30
